<?xml version="1.0" encoding="UTF-8" standalone="no"?>
<!-- Created with Inkscape (http://www.inkscape.org/) -->

<svg
   xmlns:dc="http://purl.org/dc/elements/1.1/"
   xmlns:cc="http://creativecommons.org/ns#"
   xmlns:rdf="http://www.w3.org/1999/02/22-rdf-syntax-ns#"
   xmlns:svg="http://www.w3.org/2000/svg"
   xmlns="http://www.w3.org/2000/svg"
   xmlns:sodipodi="http://sodipodi.sourceforge.net/DTD/sodipodi-0.dtd"
   xmlns:inkscape="http://www.inkscape.org/namespaces/inkscape"
   width="210mm"
   height="297mm"
   viewBox="0 0 744.09448819 1052.3622047"
   id="svg2"
   version="1.1"
   inkscape:version="0.91 r13725"
   sodipodi:docname="assets.svg">
  <defs
     id="defs4">
    <linearGradient
       id="linearGradient2682">
      <stop
         offset="0"
         style="stop-color:#e5e35a"
         id="stop2684" />
      <stop
         offset="1"
         style="stop-color:#f7971c"
         id="stop2686" />
    </linearGradient>
    <linearGradient
       id="linearGradient2674">
      <stop
         offset="0"
         style="stop-color:#d22121"
         id="stop2676" />
      <stop
         offset="1"
         style="stop-color:#f7641c"
         id="stop2678" />
    </linearGradient>
  </defs>
  <sodipodi:namedview
     id="base"
     pagecolor="#ffffff"
     bordercolor="#666666"
     borderopacity="1.0"
     inkscape:pageopacity="0.0"
     inkscape:pageshadow="2"
     inkscape:zoom="1.4142136"
     inkscape:cx="188.94952"
     inkscape:cy="781.08869"
     inkscape:document-units="px"
     inkscape:current-layer="layer1"
     showgrid="false"
     inkscape:window-width="1920"
     inkscape:window-height="922"
     inkscape:window-x="0"
     inkscape:window-y="0"
     inkscape:window-maximized="1" />
  <metadata
     id="metadata7">
    <rdf:RDF>
      <cc:Work
         rdf:about="">
        <dc:format>image/svg+xml</dc:format>
        <dc:type
           rdf:resource="http://purl.org/dc/dcmitype/StillImage" />
        <dc:title />
      </cc:Work>
    </rdf:RDF>
  </metadata>
  <g
     inkscape:label="Layer 1"
     inkscape:groupmode="layer"
     id="layer1">
    <path
       inkscape:connector-curvature="0"
       d="m 529.72251,207.98486 -0.77319,-0.24934 0.0212,-1.40337 0.42606,-0.17303 0.0736,-4.1774 -0.87604,-0.40058 0.0112,-0.81341 0.74381,-0.15808 0,-0.0612 0.0112,0 0.0515,-5.46632 -0.005,0 0.005,-0.3774 c 0.22214,-2.04373 -0.0112,-4.08748 -0.53994,-6.12441 -0.1176,-0.73712 -0.3912,-1.47422 -0.80992,-2.20996 0,0 0.005,0 0.007,0 l -2.35446,-4.54528 -3.76676,-7.34112 c -0.32692,-0.59267 -0.91461,-1.56141 -1.58312,-2.62961 -0.97523,-1.56415 -2.55649,-4.03027 -3.32603,-5.16113 l -0.0312,0 c -3.10381,-4.88317 -11.0653,-3.74004 -19.10392,-4.57662 -1.0744,-1.58322 -11.51526,-2.2999 -15.59244,-2.26175 -1.18831,-0.16757 -3.30402,-0.0694 -3.52443,0.72351 -0.79339,2.75902 -0.97704,7.47326 -1.47475,11.78692 -0.0717,0.60904 0.87603,1.21398 0.79339,1.78759 -0.78235,3.81363 -0.42607,8.33301 -0.5583,14.10317 0,0.0286 0,0.0586 0,0.0884 l -0.2957,0 0.2957,0.009 c 0,2.95798 0.0605,5.91459 0.10112,8.86984 l -0.0403,0 0.0403,0.0144 c 0.016,1.33114 0.0312,2.66094 0.0312,3.98938 l 6.57487,0 -7.77417,0.0246 -72.22649,-0.0764 -0.0128,1.48646 -0.40034,0 0,4.07794 0.35994,0 -0.0387,3.46347 8.38572,0 c 0,-0.009 0,-0.0163 0,-0.0246 0,4.53438 4.98077,8.22808 11.0947,8.22808 3.95595,0 7.62722,-1.60228 9.59052,-4.08747 l 1.98532,0 c 0.204,0.22618 0.80443,0.39239 1.51517,0.39239 0.71072,0 1.31131,-0.16621 1.51515,-0.39239 l 0.0512,0 c 0.1928,0.22618 0.80074,0.39239 1.50231,0.39239 0.71257,0 1.3113,-0.16621 1.51517,-0.39239 l 1.73002,0 c -0.009,-0.009 -0.0128,-0.0178 -0.0213,-0.0246 1.9229,2.45386 5.50603,4.11064 9.59788,4.11064 4.58038,0 8.79162,-2.14864 10.39679,-5.33144 0.4279,-0.90468 0.69235,-1.93064 0.69235,-2.89665 0,0.0163 0,0.0314 0,0.0464 l 4.12861,0 12.55293,0.0163 1.50231,0 4.26999,0.006 3.91554,0 c 0,0.001 0,0.006 0,0.007 l -0.77319,0 1.7539,1.94971 c 1.21584,3.56292 5.57952,6.21162 10.74942,6.21162 4.11025,0 7.90092,-1.73173 9.80359,-4.37497 l 10.01844,0.0144 c 2.52341,0.80796 3.84207,-0.84612 2.47017,-1.68267 l -9.77049,-0.0287 c 0.003,-0.36243 -0.003,-0.73167 -0.016,-1.10089 l 0,0 c 0.0128,0.36922 0.0212,0.73846 0.016,1.10089 l 9.77966,0.0287 3.7925,0 c 1.29296,-0.0112 1.94311,-0.69625 1.82006,-4.38587 z m -47.83878,2.26311 c -0.35443,0.33926 -0.57117,0.76163 -0.57117,1.2208 0,1.10225 1.21214,2.0083 2.70709,2.0083 1.48214,0 2.69242,-0.90605 2.69242,-2.0083 0,-0.45917 -0.20212,-0.88154 -0.55832,-1.2208 z m -221.88244,-0.22618 c 0,4.62293 5.08361,8.40114 11.32423,8.40114 6.2333,0 11.31507,-3.77821 11.31507,-8.40114 0,-2.13095 -1.08173,-4.08067 -2.854,-5.56443 0.26454,0.22209 0.51974,0.44826 0.75114,0.68398 l 1.8586,0 c -0.30672,-0.41828 -0.652,-0.80797 -1.0248,-1.16903 1.45088,1.40065 2.47203,3.22503 2.71261,5.52082 0,0.28069 0.0312,0.55045 0.0935,0.80797 l 1.28925,-0.023 c -0.14128,-1.80394 0.74015,-3.60244 2.12858,-5.1366 l 1.58129,0 c 0.36549,-0.27932 0.72176,-0.54365 1.08908,-0.79161 0.0807,-0.0668 0.17092,-0.128 0.25332,-0.19348 -1.99816,1.51782 -3.23418,3.58744 -3.23418,5.86417 0,4.62294 5.09463,8.40114 11.32609,8.40114 6.23144,0 11.32608,-3.7782 11.32608,-8.40114 0,-1.9906 -0.94768,-3.82452 -2.51977,-5.26877 0.0605,0.0573 0.12848,0.11184 0.19091,0.17033 0.0935,0.0764 0.18348,0.1512 0.26455,0.21936 l 2.02575,0 c 0.97153,1.24395 1.63822,2.74814 1.82736,4.54117 l 1.29112,0.10496 c 0.31405,-1.31072 -0.22585,-3.03428 -1.46926,-4.67609 0.0112,0.01 0.0188,0.0191 0.0268,0.03 l 4.66857,0 0,-3.96621 -9.73014,0 c 0.10454,0.0477 0.20215,0.1008 0.30304,0.1512 -0.156,-0.0764 -0.31404,-0.1472 -0.47383,-0.21799 l 11.14608,0 c -0.59872,0.28612 -0.99172,0.78343 -0.99172,1.34342 l 0,0.61992 c 0,0.25478 0.0808,0.49324 0.22586,0.7085 0.33242,0.58315 1.08173,0.99598 1.989,0.99598 l 21.27841,0 c 1.19745,0 2.16533,-0.72349 2.16533,-1.60638 l 0,-0.61858 c 0,-0.18122 -0.0459,-0.35832 -0.1192,-0.52183 -0.14128,-0.38422 -0.47751,-0.70849 -0.91828,-0.91968 l 124.5079,0 0,-1.28347 5.68231,0 0,-0.03 0.0187,0 0,-2.07236 -0.0187,0 0,-39.30125 -241.56681,0 0,41.4021 8.51798,0 0,1.28348 25.02684,0 c -4.47019,2.18814 -7.44175,6.30289 -6.75122,9.00473 l 1.28193,-0.0314 c -0.12672,-1.73038 0.6832,-3.45258 1.96696,-4.93906"
       id="truckRight"
       style="fill:#800000;stroke-width:1.4829973"
       inkscape:label="#path16" />
    <path
       inkscape:connector-curvature="0"
       d="m 174.62922,189.2935 c 0.108,-0.74559 0.14,-1.17725 0,-2.57853 0.016,-1.01047 -1.10372,-1.62525 -2.0179,-1.57293 l -1.98586,-5.64429 c -0.6838,-1.3064 -2.15788,-2.37411 -4.5928,-3.10171 -7.73047,-2.31691 -19.29269,-4.44904 -31.29227,-5.2159 -7.15457,-5.9255 -18.42225,-14.01748 -24.38268,-15.60677 -1.11393,-0.55593 -1.89691,-0.99413 -2.90733,-1.37183 -0.53801,-0.68017 -1.27577,-1.28516 -2.43781,-1.50425 -3.01523,-0.41368 -6.116452,-0.73416 -9.382445,-0.96796 l 0.04528,-0.70146 c 0,-0.3728 -0.26392,-0.65241 -0.559871,-0.67202 l -2.187068,-0.14879 c -0.295967,-0.0197 -0.559886,0.31554 -0.559886,0.67201 l -0.0424,0.64584 c -3.362233,-0.17336 -6.921282,-0.26325 -10.748616,-0.27141 l 0.02048,-0.52323 c 0,-0.37443 -0.263919,-0.65403 -0.559886,-0.67203 l -2.188508,0 c -0.294527,-0.0197 -0.558415,0.31721 -0.558415,0.67203 l -0.02032,0.53139 c -2.119995,0.0212 -4.358054,0.0587 -6.782768,0.12416 -1.517805,0.0361 -2.95105,0.0736 -4.27495,1.19688 l -1.711725,0 c -0.277024,0 -0.571567,0.21584 -0.625503,0.80609 -0.339711,0.13408 -0.484047,0.34992 -0.543838,0.53467 -0.07744,-0.001 -0.156,-0.003 -0.23184,-0.003 -2.45969,0 -3.930855,1.01373 -5.833571,4.01574 l -4.267654,6.73487 c -0.05392,-0.0144 -0.11072,-0.0261 -0.1632,-0.0261 -0.204127,0 -0.382015,0.11104 -0.514702,0.31065 l -1.080366,1.57296 -21.53224,0.93198 c -0.04528,0.001 -0.0904,0.003 -0.13696,0.003 -0.339727,0.0112 -0.806286,0.0196 -0.944798,0.58864 l -0.402415,1.55005 -0.11808,0.45128 c -0.02032,0.046 -0.04096,0.0982 -0.06416,0.15056 -0.807746,1.49609 -2.080611,5.25513 -0.387839,11.44063 0.26392,0.93361 -0.233279,1.27043 -0.637157,1.75769 -0.838364,0.44799 -3.306818,1.49445 -3.181419,2.5589 -0.202679,3.43855 -0.357221,8.31925 2.994791,8.78523 7.96233,1.17889 18.267697,1.64653 20.549501,2.24496 0.574463,1.92612 1.210174,3.58735 1.784652,3.60698 0.527807,0 0.09328,-1.17727 -0.123999,-2.48695 0.0032,-0.39241 0.0112,-0.77666 0.02896,-1.15599 l 1.431772,0.50849 0.048,0.0195 c 0.32808,6.99648 5.18914,12.57371 11.079591,12.57371 5.657156,0 10.341818,-5.12267 11.011047,-11.70221 l 0.03936,0 1.175181,0 c -0.0032,0.11616 -0.0032,0.23872 -0.0096,0.3548 13.596144,0.44801 43.490164,0.4889 50.800734,0.43165 2.29643,0.0572 4.46887,-0.18637 4.76486,0.0931 0.15456,0.54448 0.89961,1.5517 1.45948,2.15013 1.24225,1.32931 0.72902,-0.0949 0.60363,-1.45849 -0.0465,-0.48399 -0.0847,-0.97123 -0.10944,-1.46176 l 0.001,0 1.0556,0 0.006,0 c 0.71152,6.52886 5.37577,11.59269 11.01398,11.59269 5.61343,0 10.2879,-5.06383 11.00089,-11.59269 l 0.0365,0 1.19703,0 c -0.0249,0.37444 -0.0554,0.73416 -0.0946,1.0857 3.73983,-0.69164 12.07398,-0.54285 14.75968,-2.26131 2.0631,-1.30968 2.79358,-3.8506 3.352,-5.83231 0.13696,-0.36952 -0.032,-1.71518 -0.0626,-2.16319 z m -118.968127,-23.52217 4.238488,-6.83134 c 1.688412,-2.7404 2.496154,-2.91369 4.232678,-3.02163 -0.387839,2.50659 -0.940429,5.07527 -1.691308,7.85001 -0.444703,1.6089 -1.325358,2.38555 -2.767371,2.43952 l -3.805446,0.16516 c 0.0014,-0.26979 -0.06704,-0.47091 -0.207041,-0.6017 z"
       id="carRight"
       style="fill:#800000;stroke-width:1.44752014"
       inkscape:label="#path86" />
    <path
       inkscape:connector-curvature="0"
       d="m 47.95041,93.706215 c -0.06451,0 -0.126607,0.01316 -0.184995,0.03948 l -2.668678,-0.563864 2.285788,-1.66599 c 0.01024,0 0.02003,0 0.02994,0 0.297035,0 0.53778,-0.334432 0.53778,-0.746553 0,-0.412357 -0.240745,-0.746714 -0.53778,-0.746714 -0.228837,0 -0.423859,0.198258 -0.50156,0.477624 l -2.248782,1.560738 1.117022,-3.175013 c 0.205315,-0.105376 0.351423,-0.379156 0.351423,-0.700269 0,-0.412356 -0.240717,-0.746778 -0.537739,-0.746778 -0.297026,0 -0.53774,0.334422 -0.53774,0.746778 0,0.06663 0.007,0.131721 0.0182,0.193312 l -1.031636,3.165482 -4.032238,3.358588 2.357375,-6.545229 c 2.48136,-6.631524 -6.203838,-0.861298 -6.203838,-0.861298 1.489052,-3.961549 -0.123954,-11.626535 -0.123954,-11.626535 4.466678,1.980766 4.838997,-3.617066 4.838997,-3.617066 l 0.682301,-3.055609 2.199123,-1.031931 c 0.04599,0.01773 0.09449,0.02735 0.144515,0.02735 0.297034,0 0.537778,-0.334189 0.537778,-0.746526 0,-0.412328 -0.240744,-0.746508 -0.537778,-0.746508 -0.230949,0 -0.428069,0.202486 -0.503919,0.486416 l -1.963943,1.105131 0.754442,-2.756645 c 0.158851,-0.129752 0.265583,-0.369432 0.265583,-0.643821 0,-0.412319 -0.240744,-0.746508 -0.537779,-0.746508 -0.297022,0 -0.537727,0.334189 -0.537727,0.746526 0,0.128426 0.02318,0.249078 0.06441,0.35476 l -0.877315,2.701223 -0.520605,-2.56478 c 0.0455,-0.109658 0.07188,-0.236981 0.07188,-0.372707 0,-0.412337 -0.241023,-0.746703 -0.53801,-0.746703 -0.297033,0 -0.537508,0.334366 -0.537508,0.746703 0,0.271459 0.104363,0.509188 0.260577,0.639771 l 0.643137,2.986665 -0.744364,3.53103 c -0.868584,2.669884 -3.163928,0.516694 -3.163928,0.516694 l -0.744616,-2.841904 c -0.123954,-1.980766 -1.426718,-2.755889 -1.426718,-2.755889 -0.124167,-2.583671 -1.240673,-1.20582 -1.240673,-1.20582 -0.791706,-1.030091 -2.0564,-1.019834 -2.536564,-0.973224 l 0,0 0,0 c -0.121848,0.01148 -0.193169,0.02586 -0.193169,0.02586 0,0 -1.737206,-0.344466 -2.729735,0.947352 0,0 -1.116734,-1.377834 -1.240939,1.20582 0,0 -1.302765,0.775141 -1.426671,2.755888 l -0.744338,2.84196 c 0,0 -2.295302,2.153171 -3.164174,-0.516711 l -0.744157,-3.531031 0.643187,-2.986656 c 0.155924,-0.130564 0.260549,-0.368303 0.260549,-0.639781 0,-0.412337 -0.240717,-0.746703 -0.537738,-0.746703 -0.297026,0 -0.53774,0.334366 -0.53774,0.746703 0,0.135669 0.02616,0.263013 0.07188,0.372708 l -0.520537,2.564808 -0.877343,-2.701243 c 0.04101,-0.105707 0.06442,-0.226333 0.06442,-0.354759 0,-0.412319 -0.241003,-0.746526 -0.53803,-0.746526 -0.296982,0 -0.537739,0.334207 -0.537739,0.746526 0,0.274427 0.106769,0.514145 0.265574,0.643823 l 0.754445,2.756634 -1.963666,-1.105102 c -0.07606,-0.283949 -0.272981,-0.486436 -0.504189,-0.486436 -0.297023,0 -0.53778,0.334162 -0.53778,0.746499 0,0.412347 0.240757,0.746545 0.53778,0.746545 0.05028,0 0.09855,-0.0099 0.144555,-0.02735 l 2.199352,1.031929 0.682295,3.05561 c 0,0 0.372099,5.597851 4.838985,3.617085 0,0 -1.612988,7.664966 -0.124166,11.626516 0,0 -8.685195,-5.770283 -6.203625,0.861288 l 2.357388,6.545249 -4.032458,-3.358616 -1.031407,-3.165512 c 0.01174,-0.0616 0.01821,-0.126614 0.01821,-0.193283 0,-0.412347 -0.240726,-0.746768 -0.537749,-0.746768 -0.297026,0 -0.53799,0.334421 -0.53799,0.746768 0,0.321122 0.146359,0.594981 0.351452,0.700279 l 1.116984,3.175021 -2.248521,-1.560756 c -0.07765,-0.279346 -0.272982,-0.477614 -0.501553,-0.477614 -0.297034,0 -0.538007,0.334376 -0.538007,0.746704 0,0.41214 0.241012,0.746563 0.538007,0.746563 0.01024,0 0.02003,0 0.02994,0 l 2.286026,1.66598 -2.668965,0.563863 c -0.05814,-0.02566 -0.120473,-0.03948 -0.184966,-0.03948 -0.338788,0 -0.613581,0.381313 -0.613581,0.851796 0,0.470475 0.274793,0.851788 0.613581,0.851788 0.182597,0 0.346466,-0.110638 0.458752,-0.286337 l 3.325893,-0.908085 4.032239,3.2726 c 0,0 6.726549,5.243115 4.404815,-2.928117 0,0 1.054344,1.464044 1.860844,1.550218 0,0 1.782682,0.811272 2.848651,0.780099 0,4.1e-4 1.053575,1.41509 2.244042,0 1.066012,0.03126 2.848395,-0.780099 2.848395,-0.780099 0.806499,-0.08614 1.861112,-1.550218 1.861112,-1.550218 -2.321974,8.171232 4.404584,2.928117 4.404584,2.928117 l 4.032459,-3.2726 3.325625,0.908085 c 0.112378,0.175765 0.276166,0.286337 0.45876,0.286337 0.339006,0 0.61358,-0.381313 0.61358,-0.851788 0,-0.470538 -0.274574,-0.851852 -0.61358,-0.851852 z"
       id="frogUp"
       inkscape:label="#path6"
       style="fill:#008000;stroke-width:0.01697237" />
    <path
       inkscape:connector-curvature="0"
       d="m 105.01934,71.687024 c 0.0605,0 0.11872,-0.01391 0.17344,-0.03957 l 2.50189,0.563852 -2.14293,1.665996 c -0.009,0 -0.0188,0 -0.0282,0 -0.27847,0 -0.50417,0.334422 -0.50417,0.746552 0,0.412336 0.2257,0.746702 0.50417,0.746702 0.21453,0 0.39737,-0.198249 0.47021,-0.477614 l 2.10823,-1.560743 -1.04721,3.175004 c -0.19248,0.105333 -0.32945,0.379156 -0.32945,0.700278 0,0.412336 0.22566,0.746759 0.50413,0.746759 0.27846,0 0.50412,-0.334423 0.50412,-0.746759 0,-0.06674 -0.006,-0.131692 -0.017,-0.19333 l 0.96716,-3.165457 3.78022,-3.35858 -2.21002,6.545205 c -2.32628,6.63149 5.81609,0.861296 5.81609,0.861296 -1.39597,3.961521 0.11624,11.626488 0.11624,11.626488 -4.18751,-1.980761 -4.53656,3.617048 -4.53656,3.617048 l -0.63965,3.055593 -2.06168,1.031927 c -0.0431,-0.01774 -0.0886,-0.02725 -0.1355,-0.02725 -0.27845,0 -0.50415,0.334198 -0.50415,0.746534 0,0.412335 0.2257,0.746506 0.50415,0.746506 0.21652,0 0.40134,-0.202496 0.47244,-0.486414 l 1.84118,-1.10512 -0.70728,2.756629 c -0.14892,0.129669 -0.24897,0.36942 -0.24897,0.6438 0,0.41233 0.22569,0.74653 0.50417,0.74653 0.27846,0 0.50412,-0.3342 0.50412,-0.74654 0,-0.12839 -0.0219,-0.24909 -0.0605,-0.35474 l 0.82248,-2.701225 0.48806,2.564765 c -0.0427,0.10964 -0.0673,0.23698 -0.0673,0.37271 0,0.41234 0.22595,0.7467 0.50437,0.7467 0.27848,0 0.50393,-0.33436 0.50393,-0.7467 0,-0.27146 -0.0978,-0.509172 -0.24429,-0.639776 l -0.60296,-2.986646 0.69786,-3.531023 c 0.81429,-2.669857 2.96617,-0.51669 2.96617,-0.51669 l 0.6981,2.841907 c 0.11623,1.980751 1.33753,2.755882 1.33753,2.755882 0.11635,2.583636 1.16315,1.205815 1.16315,1.205815 0.74222,1.030061 1.92786,1.019821 2.37802,0.973201 l 0,0 0,0 c 0.11424,-0.0125 0.1811,-0.026 0.1811,-0.026 0,0 1.62863,0.34447 2.55911,-0.94735 0,0 1.04695,1.37783 1.16338,-1.205817 0,0 1.22135,-0.77514 1.33753,-2.755872 l 0.6978,-2.841936 c 0,0 2.15183,-2.153164 2.96642,0.516693 l 0.69763,3.531021 -0.60299,2.986652 c -0.14616,0.130592 -0.24425,0.368299 -0.24425,0.639769 0,0.41233 0.22566,0.74671 0.50413,0.74671 0.27845,0 0.50412,-0.33438 0.50412,-0.74671 0,-0.13572 -0.0246,-0.26301 -0.0673,-0.37271 l 0.48801,-2.564791 0.82252,2.701231 c -0.0383,0.1056 -0.0605,0.22632 -0.0605,0.35475 0,0.41233 0.22594,0.74652 0.5044,0.74652 0.27842,0 0.50414,-0.33419 0.50414,-0.74652 0,-0.27441 -0.10005,-0.514124 -0.24899,-0.64381 l -0.70729,-2.756627 1.84094,1.105112 c 0.0715,0.283919 0.25593,0.486415 0.47268,0.486415 0.27846,0 0.50417,-0.334161 0.50417,-0.746497 0,-0.412337 -0.22571,-0.746535 -0.50417,-0.746535 -0.047,0 -0.0924,0.0094 -0.13552,0.02725 l -2.06189,-1.031928 -0.63966,-3.055592 c 0,0 -0.34885,-5.597818 -4.53655,-3.617058 0,0 1.51217,-7.664939 0.11635,-11.62647 0,0 8.14237,5.77025 5.81591,-0.861286 l -2.21005,-6.545213 3.78043,3.35859 0.96694,3.165511 c -0.0112,0.06169 -0.0171,0.126559 -0.0171,0.193274 0,0.412336 0.22569,0.746767 0.50414,0.746767 0.27847,0 0.50438,-0.334431 0.50438,-0.746767 0,-0.321113 -0.13723,-0.59498 -0.3295,-0.700269 l -1.04716,-3.175022 2.10798,1.560753 c 0.0729,0.279354 0.25592,0.477623 0.47021,0.477623 0.27847,0 0.50438,-0.334366 0.50438,-0.746702 0,-0.41213 -0.22596,-0.746562 -0.50438,-0.746562 -0.009,0 -0.0188,0 -0.0282,0 l -2.14315,-1.665986 2.50216,-0.563853 c 0.0545,0.02566 0.11299,0.03957 0.17339,0.03957 0.31762,0 0.57524,-0.381312 0.57524,-0.851794 0,-0.470483 -0.25762,-0.851795 -0.57524,-0.851795 -0.17118,0 -0.3248,0.110606 -0.43007,0.286347 l -3.11803,0.908092 -3.78022,-3.272601 c 0,0 -6.30614,-5.243078 -4.12951,2.928107 0,0 -0.98846,-1.464029 -1.74455,-1.550214 0,0 -1.67127,-0.811268 -2.6706,-0.780095 0,-4.11e-4 -0.98774,-1.415079 -2.10381,0 -0.99937,-0.03126 -2.67035,0.780095 -2.67035,0.780095 -0.75608,0.08615 -1.74479,1.550214 -1.74479,1.550214 2.17684,-8.171185 -4.12931,-2.928107 -4.12931,-2.928107 l -3.78043,3.272601 -3.11777,-0.908092 c -0.10528,-0.175757 -0.2589,-0.286347 -0.43008,-0.286347 -0.31782,0 -0.57524,0.381312 -0.57524,0.851795 0,0.470538 0.25742,0.851851 0.57524,0.851851 z"
       id="frogDown"
       inkscape:label="#path6"
       style="fill:#008000;stroke-width:0.01697233" />
    <path
       inkscape:connector-curvature="0"
       d="m 242.02493,64.867832 c 0,0.06048 0.0139,0.118692 0.0396,0.173431 l -0.56386,2.501889 -1.66599,-2.142929 c 0,-0.0094 0,-0.01876 0,-0.0281 0,-0.278459 -0.33442,-0.504158 -0.74656,-0.504158 -0.41233,0 -0.74669,0.225699 -0.74669,0.504158 0,0.214536 0.19825,0.397375 0.47761,0.470212 l 1.56074,2.108229 -3.175,-1.047208 c -0.10539,-0.19248 -0.37916,-0.329456 -0.70028,-0.329456 -0.41234,0 -0.74676,0.22567 -0.74676,0.504129 0,0.278459 0.33442,0.50413 0.74676,0.50413 0.0668,0 0.13169,-0.0065 0.19332,-0.01698 l 3.16547,0.967156 3.35858,3.780216 -6.54521,-2.210036 c -6.6315,-2.326273 -0.8613,5.816084 -0.8613,5.816084 -3.96153,-1.395984 -11.62649,0.1162 -11.62649,0.1162 1.98075,-4.187495 -3.61706,-4.536542 -3.61706,-4.536542 l -3.05559,-0.639659 -1.03194,-2.061674 c 0.0177,-0.04312 0.0272,-0.08867 0.0272,-0.135491 0,-0.27846 -0.33419,-0.504158 -0.74652,-0.504158 -0.41235,0 -0.74652,0.225698 -0.74652,0.504158 0,0.216514 0.20249,0.401323 0.48642,0.472433 l 1.10512,1.841183 -2.75664,-0.707287 c -0.12966,-0.148914 -0.36943,-0.248976 -0.64379,-0.248976 -0.41233,0 -0.74653,0.225698 -0.74653,0.504167 0,0.278459 0.3342,0.504121 0.74654,0.504121 0.12838,0 0.24908,-0.02185 0.35474,-0.06048 l 2.70122,0.822479 -2.56476,0.488068 c -0.10969,-0.04266 -0.23698,-0.06739 -0.37271,-0.06739 -0.41234,0 -0.7467,0.22595 -0.7467,0.504372 0,0.278469 0.33436,0.503925 0.7467,0.503925 0.27146,0 0.50916,-0.09788 0.63977,-0.244291 l 2.98665,-0.602951 3.53103,0.697852 c 2.66985,0.814295 0.51669,2.966165 0.51669,2.966165 l -2.84191,0.698095 c -1.98075,0.116199 -2.75589,1.337538 -2.75589,1.337538 -2.58364,0.116405 -1.20581,1.163137 -1.20581,1.163137 -1.03008,0.742223 -1.01982,1.927861 -0.97321,2.378017 l 0,0 0,0 c 0.0118,0.11423 0.0259,0.181104 0.0259,0.181104 0,0 -0.34447,1.628626 0.94735,2.559111 0,0 -1.37784,1.046935 1.20581,1.163378 0,0 0.77515,1.221339 2.75588,1.337511 l 2.84194,0.697806 c 0,0 2.15317,2.151833 -0.51668,2.966407 l -3.53104,0.697637 -2.98665,-0.602987 c -0.13059,-0.14617 -0.36831,-0.244253 -0.63978,-0.244253 -0.41232,0 -0.7467,0.225661 -0.7467,0.504129 0,0.27846 0.33438,0.504121 0.7467,0.504121 0.13573,0 0.26302,-0.02464 0.37272,-0.0673 l 2.5648,0.488001 -2.70124,0.822518 c -0.1057,-0.03836 -0.22633,-0.06048 -0.35476,-0.06048 -0.41232,0 -0.74651,0.22594 -0.74651,0.504408 0,0.278423 0.33419,0.50413 0.74651,0.50413 0.27442,0 0.51415,-0.100106 0.64382,-0.248985 l 2.75664,-0.707287 -1.10512,1.84094 c -0.28393,0.07139 -0.48642,0.255919 -0.48642,0.472677 0,0.278457 0.33416,0.504167 0.7465,0.504167 0.41234,0 0.74653,-0.22571 0.74653,-0.504167 0,-0.04704 -0.01,-0.09239 -0.0272,-0.135521 l 1.03193,-2.061897 3.05559,-0.639649 c 0,0 5.59783,-0.348843 3.61707,-4.536543 0,0 7.66495,1.512174 11.62648,0.116405 0,0 -5.77026,8.142358 0.86129,5.815888 l 6.54522,-2.210035 -3.35859,3.780413 -3.16552,0.96695 c -0.0617,-0.01112 -0.12656,-0.01698 -0.19327,-0.01698 -0.41234,0 -0.74678,0.225679 -0.74678,0.504136 0,0.278462 0.33444,0.504373 0.74678,0.504373 0.32111,0 0.59497,-0.137218 0.70026,-0.329484 l 3.17504,-1.04718 -1.56076,2.107989 c -0.27936,0.0728 -0.47763,0.255921 -0.47763,0.470214 0,0.278457 0.33438,0.504372 0.74671,0.504372 0.41214,0 0.74657,-0.225952 0.74657,-0.504372 0,-0.0093 0,-0.01878 0,-0.02808 l 1.66598,-2.143158 0.56385,2.502162 c -0.0257,0.05451 -0.0396,0.112944 -0.0396,0.173394 0,0.317624 0.38131,0.575243 0.85179,0.575243 0.47049,0 0.85181,-0.257619 0.85181,-0.575243 0,-0.171173 -0.11062,-0.324799 -0.28635,-0.430067 l -0.9081,-3.118023 3.27261,-3.780216 c 0,0 5.24307,-6.30613 -2.92812,-4.129497 0,0 1.46404,-0.988464 1.55022,-1.744546 0,0 0.81127,-1.671261 0.7801,-2.670607 3.7e-4,0 1.41508,-0.987727 0,-2.103795 0.0312,-0.999374 -0.7801,-2.670355 -0.7801,-2.670355 -0.0862,-0.756081 -1.55022,-1.744778 -1.55022,-1.744778 8.17119,2.176836 2.92812,-4.129303 2.92812,-4.129303 l -3.27261,-3.780422 0.9081,-3.117766 c 0.17575,-0.105322 0.28635,-0.258906 0.28635,-0.430079 0,-0.317826 -0.38132,-0.575239 -0.85181,-0.575239 -0.47054,0 -0.85185,0.257413 -0.85185,0.575239 z"
       id="frogLeft"
       inkscape:label="#path6"
       style="fill:#008000;stroke-width:0.01697236" />
    <path
       inkscape:connector-curvature="0"
       d="m 332.72848,95.392852 c 0,-0.06048 -0.014,-0.118693 -0.0396,-0.173432 l 0.56385,-2.501897 1.66601,2.142937 c 0,0.0094 0,0.01878 0,0.02811 0,0.278458 0.33442,0.504157 0.74655,0.504157 0.41234,0 0.74671,-0.225699 0.74671,-0.504157 0,-0.214537 -0.19825,-0.397377 -0.47762,-0.470214 l -1.56075,-2.108235 3.17502,1.047209 c 0.10528,0.192483 0.37916,0.329459 0.70028,0.329459 0.41233,0 0.74676,-0.225672 0.74676,-0.504131 0,-0.278463 -0.33443,-0.504131 -0.74676,-0.504131 -0.0668,0 -0.13169,0.0066 -0.19333,0.01698 l -3.16547,-0.967158 -3.35859,-3.78023 6.54523,2.210044 c 6.63152,2.326279 0.8613,-5.816112 0.8613,-5.816112 3.96154,1.395998 11.62654,-0.116199 11.62654,-0.116199 -1.98078,4.187515 3.61706,4.536565 3.61706,4.536565 l 3.05561,0.63966 1.03193,2.061679 c -0.0177,0.04311 -0.0273,0.08866 -0.0273,0.135494 0,0.278458 0.3342,0.504157 0.74654,0.504157 0.41234,0 0.74651,-0.225699 0.74651,-0.504157 0,-0.216515 -0.2025,-0.401326 -0.48641,-0.472436 l -1.10514,-1.84119 2.75664,0.707291 c 0.12967,0.148915 0.36944,0.248976 0.6438,0.248976 0.41234,0 0.74654,-0.2257 0.74654,-0.504169 0,-0.278458 -0.3342,-0.50412 -0.74655,-0.50412 -0.12838,0 -0.24908,0.02184 -0.35474,0.06048 l -2.70124,-0.822483 2.56478,-0.488068 c 0.10969,0.04266 0.237,0.06739 0.37271,0.06739 0.41234,0 0.74671,-0.225952 0.74671,-0.504374 0,-0.278469 -0.33437,-0.503926 -0.74671,-0.503926 -0.27146,0 -0.50918,0.09788 -0.63977,0.24429 l -2.98667,0.602954 -3.53102,-0.697856 c -2.66988,-0.814295 -0.5167,-2.966182 -0.5167,-2.966182 l 2.84192,-0.698097 c 1.98076,-0.1162 2.75589,-1.337534 2.75589,-1.337534 2.58367,-0.116405 1.20582,-1.163149 1.20582,-1.163149 1.03007,-0.742225 1.01982,-1.927867 0.97323,-2.378024 l 0,0 0,0 c -0.0118,-0.114229 -0.0259,-0.181104 -0.0259,-0.181104 0,0 0.34446,-1.62862 -0.94735,-2.559117 0,0 1.37782,-1.04694 -1.20583,-1.163374 0,0 -0.77514,-1.221353 -2.75588,-1.337525 l -2.84196,-0.697798 c 0,0 -2.15316,-2.151849 0.51671,-2.966425 l 3.53103,-0.69764 2.98666,0.60299 c 0.13059,0.14617 0.36831,0.244254 0.63978,0.244254 0.41234,0 0.74671,-0.225662 0.74671,-0.504132 0,-0.27846 -0.33437,-0.504122 -0.74671,-0.504122 -0.13573,0 -0.26302,0.02464 -0.37271,0.0673 l -2.5648,-0.487994 2.70124,-0.822519 c 0.1057,0.03836 0.22632,0.06048 0.35475,0.06048 0.41232,0 0.74652,-0.225942 0.74652,-0.504421 0,-0.278413 -0.3342,-0.504121 -0.74652,-0.504121 -0.27441,0 -0.51413,0.100107 -0.64381,0.248985 l -2.75664,0.707281 1.10511,-1.840946 c 0.28392,-0.07139 0.48642,-0.255921 0.48642,-0.472669 0,-0.27846 -0.33417,-0.504168 -0.74651,-0.504168 -0.41233,0 -0.74653,0.225708 -0.74653,0.504168 0,0.04704 0.01,0.09239 0.0273,0.135521 l -1.03194,2.061894 -3.05559,0.63966 c 0,0 -5.59784,0.348843 -3.61707,4.536557 0,0 -7.66497,-1.51219 -11.62652,-0.116415 0,0 5.77026,-8.142381 -0.86131,-5.815897 l -6.54523,2.210043 3.35861,-3.780424 3.16551,-0.966953 c 0.0617,0.0111 0.12657,0.01699 0.19329,0.01699 0.41234,0 0.74677,-0.225681 0.74677,-0.504141 0,-0.27846 -0.33443,-0.504382 -0.74677,-0.504382 -0.32111,0 -0.59499,0.137228 -0.70027,0.329494 l -3.17505,1.047182 1.56076,-2.107991 c 0.27936,-0.0728 0.47764,-0.25592 0.47764,-0.470223 0,-0.278461 -0.33437,-0.504365 -0.74671,-0.504365 -0.41214,0 -0.74658,0.225951 -0.74658,0.504365 0,0.0094 0,0.01876 0,0.0281 l -1.66598,2.143169 -0.56385,-2.502167 c 0.0256,-0.05451 0.0396,-0.112952 0.0396,-0.173404 0,-0.317623 -0.38132,-0.575233 -0.8518,-0.575233 -0.47048,0 -0.85181,0.25761 -0.85181,0.575233 0,0.171173 0.11061,0.3248 0.28635,0.43008 l 0.90811,3.118027 -3.27262,3.780228 c 0,0 -5.2431,6.30615 2.92812,4.129511 0,0 -1.46404,0.988466 -1.55022,1.744551 0,0 -0.81127,1.671265 -0.7801,2.670614 -3.7e-4,0 -1.41508,0.987729 0,2.103801 -0.0312,0.999377 0.7801,2.670364 0.7801,2.670364 0.0862,0.756085 1.55022,1.744784 1.55022,1.744784 -8.17122,-2.176843 -2.92812,4.129313 -2.92812,4.129313 l 3.27262,3.780432 -0.90811,3.117778 c -0.17574,0.105313 -0.28635,0.258907 -0.28635,0.430081 0,0.317826 0.38133,0.57524 0.85181,0.57524 0.47054,0 0.85185,-0.257414 0.85185,-0.57524 z"
       id="frogRight"
       inkscape:label="#path6"
       style="fill:#008000;stroke-width:0.01697236" />
    <path
       inkscape:connector-curvature="0"
       d="m 26.353587,294.91068 c -0.107999,-0.74558 -0.140007,-1.17725 0,-2.57853 -0.016,-1.01048 1.103722,-1.62526 2.017893,-1.57294 l 1.985845,-5.6443 c 0.683804,-1.30641 2.157874,-2.37412 4.592789,-3.10172 7.730442,-2.31691 19.292616,-4.44905 31.292153,-5.21592 7.154552,-5.9255 18.422181,-14.01753 24.382585,-15.60681 1.113929,-0.55593 1.896902,-0.99414 2.907311,-1.37183 0.538022,-0.68018 1.275777,-1.28518 2.43781,-1.50426 3.015214,-0.41369 6.116427,-0.73416 9.382417,-0.96797 l -0.0453,-0.70145 c 0,-0.37281 0.26391,-0.65241 0.55986,-0.67203 l 2.18707,-0.14879 c 0.29597,-0.0197 0.55987,0.31554 0.55987,0.67202 l 0.0423,0.64584 c 3.36223,-0.17337 6.92127,-0.26326 10.74857,-0.27141 l -0.0205,-0.52324 c 0,-0.37443 0.26392,-0.65403 0.55988,-0.67203 l 2.1885,0 c 0.29453,-0.0197 0.55841,0.31721 0.55841,0.67203 l 0.0204,0.53139 c 2.11999,0.0212 4.35804,0.0586 6.78275,0.12417 1.5178,0.036 2.95103,0.0736 4.27494,1.19688 l 1.71171,0 c 0.27703,0 0.57156,0.21584 0.62551,0.80609 0.33971,0.13408 0.48404,0.34992 0.54383,0.53467 0.0774,-0.001 0.156,-0.003 0.23184,-0.003 2.45969,0 3.93085,1.01375 5.83355,4.01576 l 4.26764,6.7349 c 0.0539,-0.0144 0.11072,-0.0261 0.16321,-0.0261 0.20412,0 0.382,0.11104 0.51469,0.31066 l 1.08036,1.57297 21.53217,0.93198 c 0.0453,0.001 0.0905,0.003 0.13696,0.003 0.33971,0.0112 0.80628,0.0196 0.94479,0.58864 l 0.40241,1.55004 0.11807,0.45129 c 0.0203,0.0459 0.0409,0.0983 0.0641,0.15056 0.80775,1.4961 2.08059,5.25516 0.38785,11.44067 -0.26392,0.93361 0.23327,1.27042 0.63714,1.75769 0.83836,0.448 3.3068,1.49445 3.1814,2.5589 0.20269,3.43857 0.35723,8.31928 -2.99478,8.78527 -7.96229,1.17888 -18.26763,1.64654 -20.54942,2.24496 -0.57446,1.92613 -1.21016,3.58736 -1.78464,3.607 -0.5278,0 -0.0933,-1.17728 0.12401,-2.48696 -0.003,-0.39242 -0.0112,-0.77667 -0.029,-1.156 l -1.43179,0.50849 -0.048,0.0195 c -0.32808,6.9965 -5.18913,12.57375 -11.07954,12.57375 -5.65715,0 -10.34178,-5.12269 -11.011,-11.70224 l -0.0393,0 -1.17517,0 c 0.003,0.11616 0.003,0.23872 0.01,0.35479 -13.5961,0.44802 -43.490023,0.4889 -50.800556,0.43167 -2.296419,0.0571 -4.468855,-0.18639 -4.764837,0.0932 -0.154559,0.54447 -0.899611,1.55169 -1.459478,2.15013 -1.242249,1.32931 -0.729021,-0.0949 -0.60363,-1.4585 0.04656,-0.48398 0.08464,-0.97123 0.109439,-1.46175 l -0.0016,0 -1.055593,0 -0.0064,0 c -0.711516,6.52887 -5.375736,11.59271 -11.013936,11.59271 -5.613416,0 -10.287851,-5.06384 -11.000839,-11.59271 l -0.03648,0 -1.197032,0 c 0.0248,0.37443 0.05536,0.73414 0.09456,1.08569 -3.739826,-0.69164 -12.073923,-0.54285 -14.759618,-2.26132 -2.063093,-1.30968 -2.793577,-3.8506 -3.351982,-5.83232 -0.136966,-0.36952 0.032,-1.71519 0.06256,-2.1632 z m 118.967683,-23.52224 -4.23846,-6.83136 c -1.68841,-2.74041 -2.49616,-2.91369 -4.23267,-3.02162 0.38783,2.50659 0.94041,5.07528 1.69129,7.85002 0.44471,1.60891 1.32537,2.38556 2.76737,2.43953 l 3.80543,0.16516 c -0.001,-0.26979 0.0669,-0.47091 0.20704,-0.60171 z"
       id="carLeft"
       style="fill:#800000;stroke-width:1.44751549"
       inkscape:label="#path86" />
    <path
       inkscape:connector-curvature="0"
       d="m 232.80737,307.2253 0.7732,-0.24934 -0.0212,-1.40334 -0.42604,-0.173 -0.0736,-4.17736 0.87602,-0.40058 -0.012,-0.81338 -0.74378,-0.158 0,-0.0612 -0.012,0 -0.0516,-5.46628 0.006,0 -0.006,-0.3774 c -0.22214,-2.04372 0.012,-4.08744 0.53994,-6.12436 0.1176,-0.73708 0.39118,-1.47418 0.8099,-2.20992 0,0 -0.006,0 -0.008,0 l 2.35444,-4.54522 3.76672,-7.34106 c 0.32692,-0.59266 0.9146,-1.56138 1.5831,-2.62958 0.9752,-1.56412 2.55646,-4.03022 3.326,-5.16106 l 0.0312,0 c 3.10376,-4.88312 11.06518,-3.74 19.10372,-4.57658 1.07438,-1.5832 11.51512,-2.29988 15.59226,-2.26174 1.1883,-0.1676 3.304,-0.0694 3.52438,0.72352 0.79338,2.759 0.97704,7.47318 1.47476,11.78678 0.0716,0.60906 -0.87604,1.214 -0.7934,1.78758 0.78236,3.8136 0.42606,8.33292 0.5583,14.10302 0,0.0286 0,0.0586 0,0.0884 l 0.2957,0 -0.2957,0.008 c 0,2.95794 -0.0604,5.91454 -0.1012,8.86974 l 0.0404,0 -0.0404,0.014 c -0.016,1.33114 -0.0312,2.66092 -0.0312,3.98934 l -6.5748,0 7.77408,0.0246 72.22572,-0.0764 0.012,1.48646 0.40034,0 0,4.0779 -0.35994,0 0.0388,3.46342 -8.38564,0 c 0,-0.008 0,-0.016 0,-0.0246 0,4.53434 -4.9807,8.228 -11.09456,8.228 -3.9559,0 -7.62714,-1.60226 -9.59044,-4.08744 l -1.98528,0 c -0.204,0.2262 -0.80442,0.3924 -1.51516,0.3924 -0.71072,0 -1.31128,-0.1662 -1.51512,-0.3924 l -0.0512,0 c -0.1928,0.2262 -0.80074,0.3924 -1.5023,0.3924 -0.71256,0 -1.3113,-0.1662 -1.51516,-0.3924 l -1.73,0 c 0.008,-0.008 0.012,-0.018 0.0212,-0.0246 -1.92286,2.45384 -5.50596,4.1106 -9.59776,4.1106 -4.58034,0 -8.79154,-2.14862 -10.39668,-5.33136 -0.42792,-0.9047 -0.69236,-1.93062 -0.69236,-2.89664 0,0.016 0,0.0314 0,0.0464 l -4.12856,0 -12.55278,0.016 -1.5023,0 -4.26994,0.006 -3.9155,0 c 0,0.001 0,0.006 0,0.008 l 0.77316,0 -1.75388,1.9497 c -1.21582,3.56288 -5.57944,6.21154 -10.74928,6.21154 -4.1102,0 -7.90086,-1.7317 -9.8035,-4.37492 l -10.01832,0.014 c -2.5234,0.80796 -3.84204,-0.8461 -2.47016,-1.68266 l 9.7704,-0.0286 c -0.004,-0.36244 0.004,-0.73168 0.016,-1.1009 l 0,0 c -0.012,0.36922 -0.0212,0.73846 -0.016,1.1009 l -9.77956,0.0286 -3.79246,0 c -1.29294,-0.012 -1.9431,-0.69624 -1.82004,-4.38582 z m 47.83828,2.26308 c 0.35442,0.33926 0.57116,0.76164 0.57116,1.22078 0,1.10226 -1.21214,2.00828 -2.70706,2.00828 -1.48212,0 -2.6924,-0.90602 -2.6924,-2.00828 0,-0.45914 0.20212,-0.88152 0.55832,-1.22078 z m 221.88006,-0.22618 c 0,4.6229 -5.08356,8.40106 -11.32412,8.40106 -6.23324,0 -11.31494,-3.77816 -11.31494,-8.40106 0,-2.13092 1.08172,-4.08062 2.85398,-5.56436 -0.26454,0.2221 -0.51974,0.44826 -0.75114,0.68396 l -1.85858,0 c 0.3067,-0.41826 0.65198,-0.80794 1.02478,-1.169 -1.45086,1.40062 -2.472,3.22498 -2.7126,5.52074 0,0.2807 -0.0312,0.55046 -0.0936,0.80798 l -1.28922,-0.023 c 0.1412,-1.80392 -0.74014,-3.6024 -2.12856,-5.13656 l -1.58128,0 c -0.36548,-0.2793 -0.72176,-0.54362 -1.08906,-0.79158 -0.0808,-0.0666 -0.171,-0.128 -0.25332,-0.1934 1.99816,1.5178 3.23414,3.5874 3.23414,5.8641 0,4.62288 -5.09458,8.40106 -11.32596,8.40106 -6.23138,0 -11.32596,-3.77818 -11.32596,-8.40106 0,-1.99058 0.94768,-3.82448 2.51974,-5.2687 -0.0604,0.0572 -0.1284,0.1118 -0.1908,0.1704 -0.0936,0.0764 -0.1834,0.1512 -0.26454,0.21934 l -2.02574,0 c -0.97154,1.24394 -1.6382,2.74812 -1.82734,4.54114 l -1.29112,0.105 c -0.31402,-1.31072 0.22586,-3.03424 1.46926,-4.67606 -0.012,0.01 -0.018,0.02 -0.0268,0.03 l -4.66852,0 0,-3.96616 9.73006,0 c -0.1044,0.0476 -0.20216,0.1008 -0.30304,0.1512 0.156,-0.0764 0.31404,-0.1472 0.47382,-0.218 l -11.14594,0 c 0.59868,0.28612 0.9917,0.78344 0.9917,1.34344 l 0,0.61988 c 0,0.2548 -0.0808,0.49324 -0.22586,0.7085 -0.33242,0.58316 -1.0817,0.99598 -1.98898,0.99598 l -21.2782,0 c -1.19742,0 -2.1653,-0.72348 -2.1653,-1.60638 l 0,-0.61856 c 0,-0.1812 0.0458,-0.3583 0.1192,-0.52182 0.1412,-0.38422 0.47752,-0.7085 0.91828,-0.91968 l -124.50658,0 0,-1.28348 -5.68224,0 0,-0.03 -0.018,0 0,-2.07234 0.018,0 0,-39.30082 241.56422,0 0,41.40164 -8.51792,0 0,1.28346 -25.02656,0 c 4.47016,2.18812 7.44168,6.30284 6.75116,9.00464 l -1.2819,-0.0314 c 0.1268,-1.73034 -0.6832,-3.45252 -1.96696,-4.939"
       id="truckLeft"
       style="fill:#800000;stroke-width:1.48299718"
       inkscape:label="#path16" />
    <path
       inkscape:connector-curvature="0"
       d="m 288.97642,379.72111 0.0324,-0.68575 c 0,-2.33091 -0.53096,-3.47689 -2.08295,-3.47689 l -11.57387,0 c 0,-1.52114 -0.10227,-3.22166 -1.37045,-4.78996 l -5.68295,-7.16699 c -0.70483,-0.85487 -0.87188,-0.89485 -1.40625,-1.27718 -0.57017,-0.38029 -2.96761,-1.52217 -3.63494,-1.85838 -0.6733,-0.30546 -1.05938,-0.38336 -1.45228,-0.34441 l 0,-1.95575 c 0.3929,-0.84052 0.84716,-0.80157 0.8821,-3.51585 0,-3.01973 -1.61591,-5.47877 -4.54602,-5.47877 -2.93011,0 -4.33977,2.46314 -4.62273,5.47877 l 1.02358,0 0,4.23644 c 0,1.52114 1.24262,2.7645 2.78182,2.7645 l 0,0.80977 -3.17471,6.40438 -2.99404,3.30674 c -1.275,1.44426 -2.78778,0.46024 -2.43409,-1.06501 l 2.43409,-12.21935 c 0.17301,-0.79747 -0.31619,-1.61135 -1.09858,-0.17118 l -5.95824,10.99342 c -1.41051,2.71427 -5.08039,4.19749 -7.37215,4.19749 l -2.93012,0 0,5.77706 0.21222,-0.043 c 1.71988,0 3.36051,0.41411 4.87415,1.15418 l -0.76535,1.49449 c -1.24602,-0.55762 -2.59517,-0.87845 -4.00482,-0.87845 -6.36307,-0.002 -11.53296,6.22704 -11.53296,13.87887 0,7.65491 5.16989,13.88093 11.5321,13.88093 6.37415,0 11.53807,-6.22602 11.53807,-13.88093 0,-4.09293 -1.48722,-7.76356 -3.83437,-10.30768 l 0.74062,-1.45246 c 2.74943,2.88135 4.50682,7.09319 4.50682,11.75912 0,3.31084 1.30398,6.74878 5.43153,6.74878 4.09517,0 7.37216,0 12.17216,-0.0892 l 8.72131,0 c 1.96363,4.30205 5.75625,7.22132 10.11562,7.22132 6.34517,0 11.4929,-6.17989 11.53125,-13.79584 l 2.54489,0 c 0,-6.99992 -3.5608,-13.02811 -8.60284,-15.6532 z m -54.89744,24.14555 c -3.93409,0 -7.12756,-3.84898 -7.12756,-8.57641 0,-4.72742 3.19347,-8.5682 7.12756,-8.5682 0.57358,0 1.11988,0.0892 1.6517,0.23985 l -1.56136,3.07509 c -0.0315,-0.004 -0.0605,-0.004 -0.0895,-0.004 -2.41449,0 -4.37898,2.35449 -4.37898,5.25839 0,2.9039 1.96449,5.26967 4.37898,5.26967 2.41449,0 4.37897,-2.36577 4.37897,-5.26967 0,-0.95225 -0.21903,-1.8471 -0.58636,-2.61792 l 1.55114,-3.03203 c 1.10795,1.50986 1.7838,3.48509 1.7838,5.64892 -8.5e-4,4.72743 -3.19431,8.57641 -7.1284,8.57641 z m 24.12698,-22.49321 -7.3338,-3.57017 9.03409,-6.23012 c 1.02358,1.9127 1.75824,2.80755 3.23864,3.85308 l -4.93893,5.94721 z m 14.01051,10.94627 c -0.10312,0.67345 -0.74403,0.55762 -0.74403,0 l 0,-8.95156 4.73352,0 c 0.5625,0 0.62727,0.46433 0.3179,0.84462 -2.15284,1.95063 -3.74063,4.80123 -4.30739,8.10694 z m 11.2875,11.54694 c -3.93409,0 -7.12841,-3.84898 -7.12841,-8.57641 0,-3.01255 1.30057,-5.6602 3.25824,-7.18647 l 0.93409,3.29444 c -0.8821,0.96045 -1.44204,2.34629 -1.44204,3.89101 0,2.9039 1.96363,5.26557 4.37897,5.26557 2.41449,0 4.37216,-2.36167 4.37216,-5.26557 0,-2.6292 -1.61079,-4.80533 -3.70312,-5.19177 l -0.97244,-3.35696 c 0.10312,-0.007 0.19943,-0.0195 0.30255,-0.0195 3.92728,0 7.12415,3.84078 7.12415,8.56821 0.004,4.72845 -3.19602,8.57743 -7.12415,8.57743 z"
       id="motorbikeLeft"
       inkscape:label="#path28"
       style="fill:#800000" />
    <path
       inkscape:connector-curvature="0"
       d="m 43.934861,383.98912 -0.0324,-0.68575 c 0,-2.33091 0.53096,-3.47689 2.08295,-3.47689 l 11.57387,0 c 0,-1.52114 0.10227,-3.22166 1.37045,-4.78996 l 5.68295,-7.16699 c 0.70483,-0.85487 0.87188,-0.89485 1.40625,-1.27718 0.57017,-0.38029 2.96762,-1.52217 3.63495,-1.85838 0.6733,-0.30546 1.05938,-0.38336 1.452272,-0.34441 l 0,-1.95575 c -0.392892,-0.84052 -0.847162,-0.80157 -0.882102,-3.51585 0,-3.01973 1.615912,-5.47877 4.546026,-5.47877 2.93012,0 4.33978,2.46314 4.62273,5.47877 l -1.02358,0 0,4.23644 c 0,1.52114 -1.24261,2.7645 -2.78182,2.7645 l 0,0.80977 3.17472,6.40438 2.99403,3.30674 c 1.275,1.44426 2.78779,0.46024 2.43409,-1.06501 l -2.43409,-12.21935 c -0.17301,-0.79747 0.3162,-1.61135 1.09858,-0.17118 l 5.95824,10.99342 c 1.41051,2.71427 5.0804,4.19749 7.37216,4.19749 l 2.93011,0 0,5.77706 -0.21221,-0.043 c -1.71989,0 -3.36051,0.41411 -4.87415,1.15418 l 0.76534,1.49449 c 1.24602,-0.55762 2.59517,-0.87845 4.00483,-0.87845 6.363063,-0.002 11.532943,6.22704 11.532943,13.87887 0,7.65491 -5.16988,13.88093 -11.532093,13.88093 -6.37415,0 -11.53807,-6.22602 -11.53807,-13.88093 0,-4.09293 1.48722,-7.76356 3.83438,-10.30768 l -0.74063,-1.45246 c -2.74943,2.88135 -4.50681,7.09319 -4.50681,11.75912 0,3.31084 -1.30398,6.74878 -5.43154,6.74878 -4.09517,0 -7.37216,0 -12.172166,-0.0892 l -8.72131,0 c -1.96363,4.30205 -5.75625,7.22132 -10.11562,7.22132 -6.34517,0 -11.4929,-6.17989 -11.53125,-13.79584 l -2.54489,0 c 0,-6.99992 3.5608,-13.02811 8.60284,-15.6532 z m 54.897456,24.14555 c 3.934083,0 7.127543,-3.84898 7.127543,-8.57641 0,-4.72742 -3.19346,-8.5682 -7.127543,-8.5682 -0.57358,0 -1.11989,0.0892 -1.65171,0.23985 l 1.56137,3.07509 c 0.0315,-0.004 0.0605,-0.004 0.0895,-0.004 2.414493,0 4.378963,2.35449 4.378963,5.25839 0,2.9039 -1.96447,5.26967 -4.378963,5.26967 -2.41449,0 -4.37898,-2.36577 -4.37898,-5.26967 0,-0.95225 0.21903,-1.8471 0.58636,-2.61792 l -1.55113,-3.03203 c -1.10796,1.50986 -1.78381,3.48509 -1.78381,5.64892 8.5e-4,4.72743 3.19432,8.57641 7.12841,8.57641 z m -24.12699,-22.49321 7.33381,-3.57017 -9.03409,-6.23012 c -1.023584,1.9127 -1.758244,2.80755 -3.238646,3.85308 l 4.938926,5.94721 z m -14.010516,10.94627 c 0.10312,0.67345 0.74403,0.55762 0.74403,0 l 0,-8.95156 -4.73352,0 c -0.5625,0 -0.62727,0.46433 -0.3179,0.84462 2.15284,1.95063 3.74063,4.80123 4.30739,8.10694 z m -11.2875,11.54694 c 3.93409,0 7.12841,-3.84898 7.12841,-8.57641 0,-3.01255 -1.30057,-5.6602 -3.25824,-7.18647 l -0.93409,3.29444 c 0.8821,0.96045 1.44204,2.34629 1.44204,3.89101 0,2.9039 -1.96363,5.26557 -4.37897,5.26557 -2.41449,0 -4.37216,-2.36167 -4.37216,-5.26557 0,-2.6292 1.61079,-4.80533 3.70312,-5.19177 l 0.97244,-3.35696 c -0.10312,-0.007 -0.19943,-0.0195 -0.30255,-0.0195 -3.92728,0 -7.12415,3.84078 -7.12415,8.56821 -0.004,4.72845 3.19602,8.57743 7.12415,8.57743 z"
       id="motorbikeRight"
       inkscape:label="#path28-3"
       style="fill:#800000" />
  </g>
</svg>
