<?xml version="1.0" encoding="UTF-8" standalone="no"?>
<!-- Created with Inkscape (http://www.inkscape.org/) -->

<svg
   xmlns:dc="http://purl.org/dc/elements/1.1/"
   xmlns:cc="http://creativecommons.org/ns#"
   xmlns:rdf="http://www.w3.org/1999/02/22-rdf-syntax-ns#"
   xmlns:svg="http://www.w3.org/2000/svg"
   xmlns="http://www.w3.org/2000/svg"
   xmlns:sodipodi="http://sodipodi.sourceforge.net/DTD/sodipodi-0.dtd"
   xmlns:inkscape="http://www.inkscape.org/namespaces/inkscape"
   width="210mm"
   height="297mm"
   viewBox="0 0 744.09448819 1052.3622047"
   id="svg2"
   version="1.1"
   inkscape:version="0.92.3 (2405546, 2018-03-11)"
   sodipodi:docname="assets.svg">
  <defs
     id="defs4">
    <linearGradient
       id="linearGradient2682">
      <stop
         offset="0"
         style="stop-color:#e5e35a"
         id="stop2684" />
      <stop
         offset="1"
         style="stop-color:#f7971c"
         id="stop2686" />
    </linearGradient>
    <linearGradient
       id="linearGradient2674">
      <stop
         offset="0"
         style="stop-color:#d22121"
         id="stop2676" />
      <stop
         offset="1"
         style="stop-color:#f7641c"
         id="stop2678" />
    </linearGradient>
  </defs>
  <sodipodi:namedview
     id="base"
     pagecolor="#ffffff"
     bordercolor="#666666"
     borderopacity="1.0"
     inkscape:pageopacity="0.0"
     inkscape:pageshadow="2"
     inkscape:zoom="1.4142136"
     inkscape:cx="293.24777"
     inkscape:cy="950.79431"
     inkscape:document-units="px"
     inkscape:current-layer="layer1"
     showgrid="false"
     inkscape:window-width="1920"
     inkscape:window-height="1017"
     inkscape:window-x="-8"
     inkscape:window-y="-8"
     inkscape:window-maximized="1" />
  <metadata
     id="metadata7">
    <rdf:RDF>
      <cc:Work
         rdf:about="">
        <dc:format>image/svg+xml</dc:format>
        <dc:type
           rdf:resource="http://purl.org/dc/dcmitype/StillImage" />
        <dc:title />
      </cc:Work>
    </rdf:RDF>
  </metadata>
  <g
     inkscape:label="Layer 1"
     inkscape:groupmode="layer"
     id="layer1">
    <path
       inkscape:connector-curvature="0"
       d="m 510.97298,208.63726 -0.72487,-0.23375 0.0199,-1.31566 0.39943,-0.16221 0.069,-3.91631 -0.82129,-0.37554 0.0105,-0.76257 0.69732,-0.1482 v -0.0574 h 0.0105 l 0.0483,-5.12466 h -0.005 l 0.005,-0.35382 c 0.20826,-1.91599 -0.0105,-3.832 -0.50619,-5.74162 -0.11025,-0.69104 -0.36675,-1.38207 -0.7593,-2.07183 0,0 0.005,0 0.007,0 l -2.2073,-4.26119 -3.53133,-6.88228 c -0.30648,-0.55563 -0.85744,-1.46382 -1.48417,-2.46525 -0.91427,-1.46639 -2.3967,-3.77837 -3.11814,-4.83855 h -0.0293 c -2.90981,-4.57796 -10.37369,-3.50628 -17.90988,-4.29057 -1.00725,-1.48427 -10.79553,-2.15615 -14.61788,-2.12039 -1.11403,-0.15709 -3.09751,-0.0651 -3.30414,0.67829 -0.7438,2.58658 -0.91597,7.00617 -1.38258,11.05021 -0.0672,0.57098 0.82128,1.13811 0.74381,1.67586 -0.73346,3.57527 -0.39944,7.81218 -0.52341,13.22169 0,0.0268 0,0.0549 0,0.0829 h -0.27722 l 0.27722,0.008 c 0,2.7731 0.0567,5.54492 0.0948,8.31546 h -0.0378 l 0.0378,0.0135 c 0.015,1.24794 0.0292,2.49462 0.0292,3.74003 h 6.16393 l -7.28827,0.0231 -67.71216,-0.0716 -0.012,1.39356 h -0.37532 v 3.82306 h 0.33744 l -0.0363,3.24699 h 7.86159 c 0,-0.008 0,-0.0153 0,-0.0231 0,4.25097 4.66946,7.71381 10.40126,7.71381 3.70869,0 7.1505,-1.50214 8.99109,-3.832 h 1.86123 c 0.19125,0.21205 0.75415,0.36787 1.42047,0.36787 0.6663,0 1.22935,-0.15582 1.42045,-0.36787 h 0.048 c 0.18075,0.21205 0.75069,0.36787 1.40841,0.36787 0.66804,0 1.22934,-0.15582 1.42047,-0.36787 h 1.62189 c -0.008,-0.008 -0.012,-0.0167 -0.02,-0.0231 1.80272,2.30049 5.16189,3.85372 8.99799,3.85372 4.2941,0 8.24213,-2.01435 9.74697,-4.99821 0.40116,-0.84814 0.64908,-1.80997 0.64908,-2.71561 0,0.0153 0,0.0294 0,0.0435 h 3.87056 l 11.76834,0.0153 h 1.40841 l 4.00311,0.006 h 3.67081 c 0,0.001 0,0.006 0,0.007 h -0.72486 l 1.64427,1.82785 c 1.13985,3.34023 5.23079,5.82338 10.07756,5.82338 3.85335,0 7.40709,-1.6235 9.19084,-4.10153 l 9.39227,0.0135 c 2.36569,0.75746 3.60193,-0.79323 2.31577,-1.5775 l -9.15981,-0.0269 c 0.003,-0.33978 -0.003,-0.68594 -0.015,-1.03209 v 0 c 0.012,0.34615 0.0199,0.69231 0.015,1.03209 l 9.16841,0.0269 h 3.55546 c 1.21215,-0.0105 1.82166,-0.65273 1.7063,-4.11174 z m -44.84875,2.12166 c -0.33228,0.31806 -0.53547,0.71403 -0.53547,1.1445 0,1.03336 1.13638,1.88278 2.53789,1.88278 1.3895,0 2.52414,-0.84942 2.52414,-1.88278 0,-0.43047 -0.18949,-0.82644 -0.52342,-1.1445 z m -208.01427,-0.21204 c 0,4.33399 4.76587,7.87605 10.61644,7.87605 5.8437,0 10.60785,-3.54206 10.60785,-7.87605 0,-1.99776 -1.01412,-3.82562 -2.67562,-5.21664 0.24801,0.20821 0.48726,0.42024 0.7042,0.64123 h 1.74243 c -0.28755,-0.39214 -0.61125,-0.75747 -0.96075,-1.09596 1.3602,1.3131 2.31752,3.02346 2.54307,5.17575 0,0.26315 0.0292,0.51605 0.0877,0.75747 l 1.20867,-0.0216 c -0.13245,-1.69119 0.69389,-3.37728 1.99554,-4.81555 h 1.48245 c 0.34265,-0.26186 0.67665,-0.50967 1.02101,-0.74213 0.0757,-0.0626 0.16024,-0.12 0.23749,-0.18139 -1.87327,1.42296 -3.03204,3.36322 -3.03204,5.49765 0,4.33399 4.77621,7.87605 10.61819,7.87605 5.84196,0 10.61817,-3.54206 10.61817,-7.87605 0,-1.86618 -0.88845,-3.58548 -2.36228,-4.93946 0.0567,0.0537 0.12045,0.10485 0.17898,0.15968 0.0877,0.0716 0.17201,0.14175 0.24801,0.20565 h 1.89914 c 0.91081,1.1662 1.53583,2.57638 1.71315,4.25734 l 1.21042,0.0984 c 0.29442,-1.2288 -0.21174,-2.84463 -1.37743,-4.38382 0.0105,0.009 0.0176,0.0179 0.0251,0.0281 h 4.37677 v -3.71831 h -9.12198 c 0.098,0.0447 0.18951,0.0945 0.2841,0.14175 -0.14625,-0.0716 -0.29442,-0.138 -0.44422,-0.20437 h 10.44943 c -0.5613,0.26824 -0.92974,0.73447 -0.92974,1.25946 v 0.58117 c 0,0.23886 0.0758,0.46241 0.21174,0.66422 0.31165,0.5467 1.01412,0.93373 1.86469,0.93373 h 19.94846 c 1.1226,0 2.02999,-0.67827 2.02999,-1.50598 v -0.57992 c 0,-0.16989 -0.043,-0.33592 -0.11175,-0.48921 -0.13245,-0.36021 -0.44767,-0.66421 -0.86089,-0.8622 h 116.72587 v -1.20325 h 5.32715 v -0.0281 h 0.0175 v -1.94283 h -0.0175 V 162.17293 H 229.74115 v 38.81437 h 7.98559 v 1.20326 h 23.4626 c -4.19079,2.05138 -6.97662,5.90895 -6.32925,8.44191 l 1.2018,-0.0294 c -0.1188,-1.62222 0.6405,-3.23678 1.84402,-4.63035"
       id="vehicle1"
       style="fill:#800000;stroke-width:1.4829973"
       inkscape:label="#path16" />
    <path
       inkscape:connector-curvature="0"
       d="m 165.26188,190.59118 c 0.10125,-0.69899 0.13125,-1.10368 0,-2.41738 0.015,-0.94732 -1.03474,-1.52368 -1.89178,-1.47463 l -1.86175,-5.29153 c -0.64107,-1.22476 -2.02302,-2.22574 -4.30576,-2.90786 -7.24734,-2.17211 -18.08695,-4.17099 -29.33659,-4.88992 -6.70743,-5.55517 -17.27091,-13.14143 -22.85882,-14.63139 -1.04432,-0.52119 -1.77836,-0.932 -2.72563,-1.28609 -0.50439,-0.63767 -1.19604,-1.20485 -2.285457,-1.41024 -2.826782,-0.38783 -5.73419,-0.68828 -8.796067,-0.90747 l 0.04245,-0.65762 c 0,-0.3495 -0.247425,-0.61163 -0.52488,-0.63002 l -2.050382,-0.13949 c -0.27747,-0.0185 -0.524895,0.29582 -0.524895,0.63001 l -0.03975,0.60548 c -3.152102,-0.16253 -6.48872,-0.2468 -10.076855,-0.25445 l 0.0192,-0.49053 c 0,-0.35103 -0.247425,-0.61315 -0.524895,-0.63003 h -2.051732 c -0.27612,-0.0185 -0.523515,0.29739 -0.523515,0.63003 l -0.01905,0.49818 c -1.987501,0.0199 -4.085687,0.055 -6.358863,0.1164 -1.422946,0.0338 -2.766617,0.069 -4.007777,1.12208 h -1.604746 c -0.259711,0 -0.535846,0.20235 -0.586411,0.75571 -0.31848,0.1257 -0.453795,0.32805 -0.50985,0.50125 -0.0726,-0.001 -0.14625,-0.003 -0.21735,-0.003 -2.305966,0 -3.685187,0.95038 -5.468988,3.76477 L 52.1708,167.5074 c -0.05055,-0.0135 -0.1038,-0.0245 -0.153,-0.0245 -0.19137,0 -0.35814,0.1041 -0.482535,0.29124 l -1.012846,1.47465 -20.186531,0.87374 c -0.04245,10e-4 -0.08475,0.003 -0.1284,0.003 -0.318495,0.0105 -0.755895,0.0184 -0.885751,0.55185 l -0.377265,1.45317 -0.1107,0.42308 c -0.01905,0.0431 -0.0384,0.0921 -0.06015,0.14115 -0.757264,1.40259 -1.950578,4.9267 -0.3636,10.72562 0.247425,0.87526 -0.2187,1.19103 -0.597337,1.64784 -0.785968,0.41999 -3.10015,1.40105 -2.982588,2.39897 -0.190012,3.22365 -0.334896,7.79932 2.807624,8.23618 7.464705,1.10521 17.126014,1.54363 19.265211,2.10466 0.53856,1.80574 1.134541,3.36315 1.673116,3.38155 0.49482,0 0.08745,-1.10369 -0.11625,-2.33152 0.003,-0.36789 0.0105,-0.72812 0.02715,-1.08375 l 1.34229,0.47671 0.045,0.0183 c 0.307576,6.55922 4.864833,11.78789 10.387146,11.78789 5.303598,0 9.695481,-4.80252 10.322885,-10.97085 h 0.0369 1.101735 c -0.003,0.1089 -0.003,0.2238 -0.009,0.33262 12.746421,0.42001 40.772146,0.45835 47.625816,0.40468 2.15291,0.0536 4.18958,-0.17473 4.46707,0.0873 0.1449,0.51045 0.84339,1.45472 1.36827,2.01575 1.16461,1.24623 0.68346,-0.089 0.5659,-1.36734 -0.0436,-0.45374 -0.0794,-0.91053 -0.1026,-1.3704 h 10e-4 0.98963 0.006 c 0.66705,6.12082 5.03979,10.86817 10.32563,10.86817 5.26261,0 9.64493,-4.74735 10.31336,-10.86817 h 0.0342 1.12222 c -0.0233,0.35104 -0.0519,0.68827 -0.0887,1.01784 3.5061,-0.64841 11.31938,-0.50892 13.83723,-2.11998 1.93417,-1.22783 2.61899,-3.60995 3.14251,-5.46781 0.1284,-0.34642 -0.03,-1.60798 -0.0587,-2.02799 z m -111.532925,-22.0521 3.973593,-6.4044 c 1.582891,-2.56913 2.340151,-2.73159 3.968147,-2.83278 -0.3636,2.34993 -0.881655,4.75808 -1.585606,7.3594 -0.41691,1.50835 -1.242526,2.23646 -2.594417,2.28706 l -3.567616,0.15484 c 0.0013,-0.25293 -0.06285,-0.44148 -0.194101,-0.5641 z"
       id="vehicle0"
       style="fill:#800000;stroke-width:1.44752014"
       inkscape:label="#path86" />
    <path
       inkscape:connector-curvature="0"
       d="m 43.503846,94.046092 c -0.0567,0 -0.111276,0.01234 -0.162593,0.03701 l -2.345518,-0.528623 2.008993,-1.561865 c 0.009,0 0.01761,0 0.02632,0 0.261065,0 0.472658,-0.31353 0.472658,-0.699894 0,-0.386584 -0.211593,-0.700044 -0.472658,-0.700044 -0.201127,0 -0.372533,0.185867 -0.440825,0.447772 l -1.976468,1.463192 0.981757,-2.976574 c 0.180453,-0.09879 0.308868,-0.355459 0.308868,-0.656503 0,-0.386583 -0.211568,-0.700104 -0.472622,-0.700104 -0.261058,0 -0.472623,0.313521 -0.472623,0.700104 0,0.06247 0.0062,0.123489 0.01599,0.18123 l -0.90671,2.96764 -3.54396,3.148676 2.071912,-6.136152 C 40.77725,82.814903 33.143774,88.22449 33.143774,88.22449 34.452512,84.510538 33.03483,77.324613 33.03483,77.324613 c 3.925792,1.856968 4.253025,-3.390999 4.253025,-3.390999 l 0.599679,-2.864634 1.932823,-0.967435 c 0.04042,0.01662 0.08304,0.02564 0.127015,0.02564 0.261065,0 0.472657,-0.313302 0.472657,-0.699868 0,-0.386557 -0.211592,-0.699851 -0.472657,-0.699851 -0.202983,0 -0.376233,0.189831 -0.442897,0.456015 l -1.726123,1.03606 0.663085,-2.584354 c 0.139615,-0.121643 0.233422,-0.346343 0.233422,-0.603583 0,-0.386549 -0.211592,-0.699851 -0.472657,-0.699851 -0.261055,0 -0.472612,0.313302 -0.472612,0.699868 0,0.1204 0.02037,0.233511 0.05661,0.332588 l -0.771078,2.532396 -0.457562,-2.404481 c 0.03999,-0.102804 0.06318,-0.22217 0.06318,-0.349413 0,-0.386566 -0.211837,-0.700034 -0.47286,-0.700034 -0.261065,0 -0.47242,0.313468 -0.47242,0.700034 0,0.254493 0.09173,0.477364 0.229023,0.599786 l 0.565257,2.799998 -0.654227,3.310341 c -0.763403,2.503016 -2.780795,0.4844 -2.780795,0.4844 L 32.38027,71.672951 c -0.108944,-1.856968 -1.253952,-2.583646 -1.253952,-2.583646 -0.10913,-2.422191 -1.090435,-1.130456 -1.090435,-1.130456 -0.695835,-0.96571 -1.807383,-0.956094 -2.229402,-0.912397 v 0 0 c -0.107093,0.01076 -0.169778,0.02424 -0.169778,0.02424 0,0 -1.52684,-0.322937 -2.39918,0.888142 0,0 -0.981505,-1.291719 -1.09067,1.130456 0,0 -1.145008,0.726695 -1.25391,2.583645 l -0.654203,2.664338 c 0,0 -2.017355,2.018598 -2.781013,-0.484417 l -0.654044,-3.310341 0.565302,-2.79999 c 0.137042,-0.122404 0.228998,-0.345284 0.228998,-0.599795 0,-0.386566 -0.211568,-0.700034 -0.472622,-0.700034 -0.261058,0 -0.472623,0.313468 -0.472623,0.700034 0,0.12719 0.023,0.246575 0.06318,0.349414 l -0.457502,2.404507 -0.771103,-2.532415 c 0.03605,-0.0991 0.05662,-0.212187 0.05662,-0.332587 0,-0.386549 -0.21182,-0.699868 -0.472878,-0.699868 -0.26102,0 -0.472623,0.313319 -0.472623,0.699868 0,0.257276 0.09384,0.482011 0.233415,0.603584 l 0.663086,2.584345 -1.725878,-1.036033 c -0.06685,-0.266202 -0.239925,-0.456034 -0.443135,-0.456034 -0.261055,0 -0.472658,0.313277 -0.472658,0.699843 0,0.386575 0.211603,0.699886 0.472658,0.699886 0.04419,0 0.08662,-0.0093 0.12705,-0.02564 l 1.933025,0.967434 0.599673,2.864634 c 0,0 0.32704,5.247985 4.253014,3.391017 0,0 -1.417665,7.185906 -0.10913,10.899859 0,0 -7.633472,-5.40964 -5.452405,0.807458 l 2.071923,6.136171 -3.544152,-3.148703 -0.906511,-2.967667 c 0.01032,-0.05775 0.016,-0.118701 0.016,-0.181203 0,-0.386575 -0.211575,-0.700095 -0.47263,-0.700095 -0.261058,0 -0.472843,0.31352 -0.472843,0.700095 0,0.301052 0.128636,0.557795 0.308893,0.656512 l 0.981725,2.976582 -1.97624,-1.463209 c -0.06825,-0.261887 -0.239925,-0.447763 -0.440818,-0.447763 -0.261065,0 -0.472857,0.313477 -0.472857,0.700035 0,0.386381 0.211827,0.699903 0.472857,0.699903 0.009,0 0.01761,0 0.02632,0 l 2.009203,1.561856 -2.34577,0.528622 c -0.0511,-0.02406 -0.105885,-0.03701 -0.162568,-0.03701 -0.297763,0 -0.53928,0.357481 -0.53928,0.798559 0,0.44107 0.241517,0.798551 0.53928,0.798551 0.160486,0 0.304511,-0.103723 0.4032,-0.268441 l 2.923148,-0.85133 3.54396,3.068063 c 0,0 5.912007,4.91542 3.87142,-2.74511 0,0 0.92667,1.372541 1.635508,1.45333 0,0 1.56681,0.760567 2.503697,0.731342 0,3.85e-4 0.925994,1.326647 1.972302,0 0.936925,0.02931 2.503473,-0.731342 2.503473,-0.731342 0.708837,-0.08076 1.635742,-1.45333 1.635742,-1.45333 -2.040797,7.66053 3.871217,2.74511 3.871217,2.74511 l 3.544153,-3.068063 2.922913,0.85133 c 0.09877,0.16478 0.242725,0.268441 0.403207,0.268441 0.297955,0 0.53928,-0.357481 0.53928,-0.798551 0,-0.44113 -0.241325,-0.798612 -0.53928,-0.798612 z"
       id="frogUp"
       inkscape:label="#path6"
       style="fill:#008000;stroke-width:0.01697237" />
    <path
       inkscape:connector-curvature="0"
       d="m 104.9834,73.53464 c 0.0567,0 0.1113,-0.01304 0.1626,-0.0371 l 2.34552,0.528612 -2.009,1.561871 c -0.008,0 -0.0176,0 -0.0264,0 -0.26106,0 -0.47266,0.31352 -0.47266,0.699892 0,0.386565 0.2116,0.700033 0.47266,0.700033 0.20113,0 0.37254,-0.185858 0.44083,-0.447763 l 1.97646,-1.463196 -0.98176,2.976566 c -0.18045,0.09875 -0.30886,0.355459 -0.30886,0.656511 0,0.386565 0.21156,0.700086 0.47262,0.700086 0.26106,0 0.47262,-0.313521 0.47262,-0.700086 0,-0.06257 -0.006,-0.123462 -0.0159,-0.181247 l 0.90671,-2.967616 3.54396,-3.148669 -2.0719,6.13613 c -2.18089,6.217022 5.45259,0.807465 5.45259,0.807465 -1.30873,3.713926 0.10897,10.899832 0.10897,10.899832 -3.92579,-1.856963 -4.25302,3.390983 -4.25302,3.390983 l -0.59968,2.864618 -1.93282,0.967432 c -0.0404,-0.01663 -0.0831,-0.02555 -0.12703,-0.02555 -0.26105,0 -0.47264,0.313311 -0.47264,0.699876 0,0.386564 0.21159,0.699849 0.47264,0.699849 0.20299,0 0.37625,-0.18984 0.44291,-0.456013 l 1.72611,-1.03605 -0.66308,2.58434 c -0.13961,0.121564 -0.23341,0.346334 -0.23341,0.603564 0,0.38656 0.21159,0.69987 0.47266,0.69987 0.26106,0 0.47261,-0.31331 0.47261,-0.69988 0,-0.12037 -0.0205,-0.23352 -0.0567,-0.33257 l 0.77108,-2.532398 0.45756,2.404468 c -0.04,0.10279 -0.0631,0.22217 -0.0631,0.34941 0,0.38657 0.21183,0.70004 0.47285,0.70004 0.26107,0 0.47243,-0.31347 0.47243,-0.70004 0,-0.25449 -0.0917,-0.477344 -0.22902,-0.599786 l -0.56527,-2.79998 0.65424,-3.310334 c 0.7634,-2.502991 2.78078,-0.484397 2.78078,-0.484397 l 0.65447,2.664288 c 0.10897,1.856954 1.25394,2.583639 1.25394,2.583639 0.10908,2.42216 1.09045,1.130452 1.09045,1.130452 0.69583,0.965678 1.80737,0.956078 2.22939,0.912378 v 0 0 c 0.1071,-0.0117 0.16979,-0.0244 0.16979,-0.0244 0,0 1.52684,0.32294 2.39916,-0.888137 0,0 0.98152,1.291717 1.09067,-1.130453 0,0 1.14502,-0.726694 1.25393,-2.58363 l 0.65419,-2.664315 c 0,0 2.01734,-2.018592 2.78102,0.484399 l 0.65403,3.310333 -0.5653,2.799986 c -0.13703,0.12243 -0.22899,0.345277 -0.22899,0.599787 0,0.38656 0.21156,0.70004 0.47262,0.70004 0.26105,0 0.47262,-0.31348 0.47262,-0.70004 0,-0.12724 -0.0231,-0.24658 -0.0631,-0.34942 l 0.45751,-2.404491 0.77111,2.532401 c -0.0359,0.099 -0.0567,0.21218 -0.0567,0.33258 0,0.38656 0.21182,0.69986 0.47288,0.69986 0.26102,0 0.47263,-0.3133 0.47263,-0.69986 0,-0.25726 -0.0938,-0.48199 -0.23343,-0.603571 l -0.66308,-2.584337 1.72588,1.036042 c 0.067,0.266174 0.23993,0.456014 0.44314,0.456014 0.26105,0 0.47266,-0.313276 0.47266,-0.699841 0,-0.386566 -0.21161,-0.699876 -0.47266,-0.699876 -0.0441,0 -0.0866,0.0088 -0.12705,0.02555 l -1.93303,-0.967432 -0.59968,-2.864618 c 0,0 -0.32704,-5.247954 -4.25301,-3.390992 0,0 1.41766,-7.18588 0.10908,-10.899815 0,0 7.63347,5.409609 5.45241,-0.807456 l -2.07192,-6.136137 3.54415,3.148678 0.90651,2.967667 c -0.0105,0.05783 -0.016,0.118649 -0.016,0.181194 0,0.386565 0.21158,0.700094 0.47263,0.700094 0.26106,0 0.47285,-0.313529 0.47285,-0.700094 0,-0.301043 -0.12865,-0.557794 -0.3089,-0.656502 l -0.98172,-2.976583 1.97624,1.463206 c 0.0683,0.261894 0.23992,0.447771 0.44082,0.447771 0.26106,0 0.47285,-0.313468 0.47285,-0.700033 0,-0.386372 -0.21183,-0.699902 -0.47285,-0.699902 -0.008,0 -0.0176,0 -0.0264,0 l -2.00921,-1.561862 2.34578,-0.528612 c 0.0511,0.02406 0.10593,0.0371 0.16255,0.0371 0.29777,0 0.53929,-0.35748 0.53929,-0.798557 0,-0.441078 -0.24152,-0.798558 -0.53929,-0.798558 -0.16048,0 -0.3045,0.103693 -0.40319,0.26845 l -2.92315,0.851337 -3.54396,-3.068064 c 0,0 -5.912,-4.915385 -3.87141,2.745101 0,0 -0.92668,-1.372528 -1.63552,-1.453326 0,0 -1.56681,-0.760564 -2.50369,-0.731339 0,-3.85e-4 -0.926,-1.326637 -1.97232,0 -0.93691,-0.02931 -2.50345,0.731339 -2.50345,0.731339 -0.70883,0.08077 -1.63574,1.453326 -1.63574,1.453326 2.04079,-7.660486 -3.87123,-2.745101 -3.87123,-2.745101 l -3.54415,3.068064 -2.92291,-0.851337 c -0.0987,-0.164772 -0.24272,-0.26845 -0.4032,-0.26845 -0.29796,0 -0.53929,0.35748 -0.53929,0.798558 0,0.441129 0.24133,0.79861 0.53929,0.79861 z"
       id="frogDown"
       inkscape:label="#path6"
       style="fill:#008000;stroke-width:0.01697233" />
    <path
       inkscape:connector-curvature="0"
       d="m 240.17736,67.019337 c 0,0.0567 0.013,0.111274 0.0371,0.162592 l -0.52862,2.345525 -1.56187,-2.009 c 0,-0.0088 0,-0.01759 0,-0.02634 0,-0.261056 -0.31352,-0.472649 -0.6999,-0.472649 -0.38656,0 -0.70003,0.211593 -0.70003,0.472649 0,0.201128 0.18586,0.37254 0.44776,0.440825 l 1.4632,1.976468 -2.97657,-0.981759 c -0.0988,-0.180451 -0.35546,-0.308866 -0.65651,-0.308866 -0.38657,0 -0.70009,0.211566 -0.70009,0.472622 0,0.261056 0.31352,0.472623 0.70009,0.472623 0.0626,0 0.12346,-0.0061 0.18124,-0.01592 l 2.96763,0.90671 3.14867,3.543959 -6.13614,-2.071912 c -6.21704,-2.180885 -0.80747,5.452588 -0.80747,5.452588 -3.71394,-1.308737 -10.89986,0.108938 -10.89986,0.108938 1.85696,-3.925784 -3.391,-4.253016 -3.391,-4.253016 l -2.86462,-0.599681 -0.96744,-1.932823 c 0.0166,-0.04042 0.0255,-0.08313 0.0255,-0.127023 0,-0.261057 -0.31331,-0.472649 -0.69987,-0.472649 -0.38657,0 -0.69986,0.211592 -0.69986,0.472649 0,0.202982 0.18984,0.376241 0.45602,0.442907 l 1.03605,1.726112 -2.58435,-0.663083 c -0.12156,-0.139607 -0.34634,-0.233415 -0.60356,-0.233415 -0.38656,0 -0.69987,0.211592 -0.69987,0.472657 0,0.261056 0.31331,0.472614 0.69988,0.472614 0.12036,0 0.23352,-0.02048 0.33257,-0.0567 l 2.5324,0.771076 -2.40447,0.457564 c -0.10283,-0.03999 -0.22217,-0.06318 -0.34941,-0.06318 -0.38657,0 -0.70004,0.211829 -0.70004,0.47285 0,0.261065 0.31347,0.47243 0.70004,0.47243 0.25449,0 0.47734,-0.09176 0.59978,-0.229023 l 2.79999,-0.565267 3.31035,0.654237 c 2.50299,0.763403 0.4844,2.780785 0.4844,2.780785 l -2.6643,0.654465 c -1.85696,0.108937 -2.58365,1.253944 -2.58365,1.253944 -2.42217,0.10913 -1.13045,1.090443 -1.13045,1.090443 -0.9657,0.695835 -0.95608,1.807373 -0.91239,2.229395 v 0 0 c 0.0111,0.107091 0.0243,0.169785 0.0243,0.169785 0,0 -0.32294,1.52684 0.88815,2.399171 0,0 -1.29173,0.981504 1.13045,1.090669 0,0 0.7267,1.145008 2.58364,1.253919 l 2.66432,0.654194 c 0,0 2.0186,2.017347 -0.48439,2.781012 l -3.31035,0.654036 -2.79999,-0.565302 c -0.12243,-0.137034 -0.34529,-0.228987 -0.5998,-0.228987 -0.38655,0 -0.70003,0.211557 -0.70003,0.472622 0,0.261056 0.31348,0.472614 0.70003,0.472614 0.12725,0 0.24658,-0.0231 0.34943,-0.06309 l 2.4045,0.457502 -2.53241,0.771112 c -0.0991,-0.03596 -0.21219,-0.0567 -0.33259,-0.0567 -0.38655,0 -0.69986,0.21182 -0.69986,0.472884 0,0.261022 0.31331,0.472623 0.69986,0.472623 0.25727,0 0.48201,-0.09385 0.60358,-0.233424 l 2.58435,-0.663083 -1.03605,1.725884 c -0.26618,0.06693 -0.45602,0.239925 -0.45602,0.443136 0,0.261054 0.31328,0.472657 0.69985,0.472657 0.38657,0 0.69987,-0.211603 0.69987,-0.472657 0,-0.0441 -0.009,-0.08662 -0.0255,-0.127051 l 0.96744,-1.933032 2.86462,-0.599672 c 0,0 5.24797,-0.327041 3.39101,-4.253017 0,0 7.1859,1.417666 10.89984,0.10913 0,0 -5.40963,7.633474 0.80746,5.452405 l 6.13616,-2.071912 -3.14869,3.544144 -2.96768,0.906517 c -0.0578,-0.01043 -0.11865,-0.01592 -0.18119,-0.01592 -0.38657,0 -0.7001,0.211575 -0.7001,0.472629 0,0.261058 0.31353,0.47285 0.7001,0.47285 0.30104,0 0.55779,-0.128642 0.6565,-0.308892 l 2.9766,-0.981733 -1.46321,1.976244 c -0.2619,0.06825 -0.44778,0.239926 -0.44778,0.440826 0,0.261054 0.31348,0.47285 0.70004,0.47285 0.38638,0 0.69991,-0.211831 0.69991,-0.47285 0,-0.0087 0,-0.01761 0,-0.02632 l 1.56186,-2.009215 0.52861,2.345782 c -0.0241,0.0511 -0.0371,0.105885 -0.0371,0.162557 0,0.297773 0.35748,0.539291 0.79856,0.539291 0.44108,0 0.79857,-0.241518 0.79857,-0.539291 0,-0.160475 -0.1037,-0.3045 -0.26845,-0.403189 l -0.85135,-2.923152 3.06808,-3.543959 c 0,0 4.91539,-5.912007 -2.74512,-3.87141 0,0 1.37254,-0.926687 1.45334,-1.635515 0,0 0.76056,-1.56681 0.73134,-2.503699 3.5e-4,0 1.32664,-0.925995 0,-1.972311 0.0293,-0.936915 -0.73134,-2.503462 -0.73134,-2.503462 -0.0808,-0.708828 -1.45334,-1.635733 -1.45334,-1.635733 7.66051,2.040788 2.74512,-3.871228 2.74512,-3.871228 l -3.06808,-3.544152 0.85135,-2.922911 c 0.16476,-0.09874 0.26845,-0.242725 0.26845,-0.4032 0,-0.297963 -0.35749,-0.539288 -0.79857,-0.539288 -0.44113,0 -0.79861,0.241325 -0.79861,0.539288 z"
       id="frogLeft"
       inkscape:label="#path6"
       style="fill:#008000;stroke-width:0.01697236" />
    <path
       inkscape:connector-curvature="0"
       d="m 332.3886,95.428788 c 0,-0.0567 -0.0131,-0.111275 -0.0371,-0.162592 l 0.52861,-2.345526 1.56188,2.009001 c 0,0.0088 0,0.01761 0,0.02635 0,0.261054 0.31352,0.472647 0.69989,0.472647 0.38657,0 0.70004,-0.211593 0.70004,-0.472647 0,-0.201128 -0.18586,-0.37254 -0.44777,-0.440825 l -1.4632,-1.976468 2.97658,0.981757 c 0.0987,0.180453 0.35546,0.308868 0.65651,0.308868 0.38656,0 0.70009,-0.211568 0.70009,-0.472623 0,-0.261058 -0.31353,-0.472622 -0.70009,-0.472622 -0.0626,0 -0.12346,0.0062 -0.18125,0.01592 l -2.96762,-0.90671 -3.14868,-3.543962 6.13615,2.071914 c 6.21704,2.180885 0.80747,-5.452599 0.80747,-5.452599 3.71394,1.308747 10.89987,-0.108936 10.89987,-0.108936 -1.85698,3.925791 3.39099,4.253025 3.39099,4.253025 l 2.86463,0.59968 0.96743,1.932822 c -0.0166,0.04042 -0.0256,0.08312 -0.0256,0.127026 0,0.261054 0.31331,0.472647 0.69988,0.472647 0.38657,0 0.69985,-0.211593 0.69985,-0.472647 0,-0.202983 -0.18984,-0.376243 -0.45601,-0.442908 l -1.03606,-1.726114 2.58434,0.663084 c 0.12157,0.139608 0.34635,0.233415 0.60357,0.233415 0.38656,0 0.69988,-0.211593 0.69988,-0.472658 0,-0.261054 -0.31332,-0.472612 -0.69989,-0.472612 -0.12036,0 -0.23352,0.02048 -0.33257,0.0567 l -2.53241,-0.771077 2.40448,-0.457563 c 0.10283,0.03999 0.22218,0.06318 0.34941,0.06318 0.38657,0 0.70004,-0.21183 0.70004,-0.47285 0,-0.261065 -0.31347,-0.47243 -0.70004,-0.47243 -0.25449,0 -0.47735,0.09176 -0.59978,0.229021 l -2.8,0.565269 -3.31033,-0.654239 c -2.50301,-0.763401 -0.48441,-2.780793 -0.48441,-2.780793 l 2.6643,-0.654465 c 1.85696,-0.108938 2.58365,-1.253937 2.58365,-1.253937 2.42218,-0.10913 1.13045,-1.090451 1.13045,-1.090451 0.96569,-0.695835 0.95608,-1.807374 0.9124,-2.229395 v 0 0 c -0.0111,-0.10709 -0.0243,-0.169785 -0.0243,-0.169785 0,0 0.32293,-1.52683 -0.88814,-2.39917 0,0 1.29171,-0.981505 -1.13046,-1.090662 0,0 -0.72669,-1.145017 -2.58364,-1.253928 l -2.66433,-0.654185 c 0,0 -2.01859,-2.017356 0.48441,-2.781021 l 3.31034,-0.654036 2.79999,0.565302 c 0.12243,0.137034 0.34529,0.228988 0.5998,0.228988 0.38656,0 0.70004,-0.211558 0.70004,-0.472623 0,-0.261056 -0.31348,-0.472614 -0.70004,-0.472614 -0.12725,0 -0.24659,0.0231 -0.34942,0.06309 l -2.4045,-0.457494 2.53241,-0.771111 c 0.0991,0.03596 0.21218,0.0567 0.33258,0.0567 0.38655,0 0.69986,-0.21182 0.69986,-0.472894 0,-0.261012 -0.31331,-0.472613 -0.69986,-0.472613 -0.25726,0 -0.482,0.09385 -0.60357,0.233423 l -2.58435,0.663075 1.03604,-1.725885 c 0.26618,-0.06693 0.45602,-0.239925 0.45602,-0.443126 0,-0.261056 -0.31328,-0.472657 -0.69985,-0.472657 -0.38656,0 -0.69987,0.211601 -0.69987,0.472657 0,0.0441 0.009,0.08662 0.0256,0.12705 l -0.96744,1.933024 -2.86462,0.599681 c 0,0 -5.24797,0.32704 -3.391,4.253017 0,0 -7.1859,-1.417676 -10.89985,-0.109139 0,0 5.40962,-7.633474 -0.80747,-5.452397 l -6.13615,2.071913 3.14869,-3.544144 2.96767,-0.906517 c 0.0578,0.01041 0.11865,0.01593 0.1812,0.01593 0.38657,0 0.7001,-0.211576 0.7001,-0.472632 0,-0.261056 -0.31353,-0.472858 -0.7001,-0.472858 -0.30104,0 -0.5578,0.128651 -0.6565,0.308901 l -2.9766,0.981732 1.46321,-1.97624 c 0.2619,-0.06825 0.44778,-0.239925 0.44778,-0.440833 0,-0.261057 -0.31347,-0.472842 -0.70004,-0.472842 -0.38638,0 -0.69991,0.211829 -0.69991,0.472842 0,0.0088 0,0.01759 0,0.02634 l -1.56186,2.009219 -0.52861,-2.345779 c 0.024,-0.0511 0.0371,-0.105892 0.0371,-0.162566 0,-0.297771 -0.35749,-0.53928 -0.79856,-0.53928 -0.44108,0 -0.79857,0.241509 -0.79857,0.53928 0,0.160475 0.10369,0.3045 0.26845,0.4032 l 0.85135,2.923147 -3.06808,3.54396 c 0,0 -4.9154,5.912009 2.74511,3.871412 0,0 -1.37253,0.926686 -1.45333,1.635515 0,0 -0.76056,1.56681 -0.73134,2.503698 -3.5e-4,0 -1.32664,0.925995 0,1.972312 -0.0293,0.936915 0.73134,2.503463 0.73134,2.503463 0.0808,0.708829 1.45333,1.635734 1.45333,1.635734 -7.66051,-2.040789 -2.74511,3.871226 -2.74511,3.871226 l 3.06808,3.544152 -0.85135,2.922914 c -0.16476,0.09873 -0.26845,0.242725 -0.26845,0.4032 0,0.297962 0.35749,0.539287 0.79857,0.539287 0.44113,0 0.79861,-0.241325 0.79861,-0.539287 z"
       id="frogRight"
       inkscape:label="#path6"
       style="fill:#008000;stroke-width:0.01697236" />
    <path
       inkscape:connector-curvature="0"
       d="m 26.346269,296.20843 c -0.101249,-0.69899 -0.131257,-1.10368 0,-2.41738 -0.015,-0.94732 1.034739,-1.52368 1.891774,-1.47463 l 1.861729,-5.29153 c 0.641066,-1.22476 2.023007,-2.22574 4.305739,-2.90786 7.247289,-2.17211 18.086824,-4.17099 29.336389,-4.88992 6.70739,-5.55517 17.270791,-13.14143 22.858669,-14.63139 1.044309,-0.52119 1.778345,-0.932 2.725604,-1.28609 0.504395,-0.63767 1.19604,-1.20485 2.285446,-1.41024 2.826763,-0.38783 5.734151,-0.68828 8.796011,-0.90747 l -0.0425,-0.65762 c 0,-0.3495 0.24742,-0.61163 0.52487,-0.63002 l 2.05038,-0.13949 c 0.27747,-0.0185 0.52488,0.29582 0.52488,0.63001 l 0.0397,0.60548 c 3.15209,-0.16253 6.48869,-0.2468 10.07679,-0.25445 l -0.0192,-0.49053 c 0,-0.35103 0.24743,-0.61315 0.52489,-0.63003 h 2.05172 c 0.27612,-0.0185 0.52351,0.29739 0.52351,0.63003 l 0.0191,0.49818 c 1.98749,0.0199 4.08566,0.055 6.35883,0.1164 1.42293,0.0338 2.76659,0.069 4.00775,1.12208 h 1.60473 c 0.25971,0 0.53584,0.20235 0.58641,0.75571 0.31848,0.1257 0.45379,0.32805 0.50985,0.50125 0.0726,-0.001 0.14624,-0.003 0.21734,-0.003 2.30596,0 3.68517,0.95038 5.46896,3.76477 l 4.00091,6.31396 c 0.0506,-0.0135 0.1038,-0.0245 0.153,-0.0245 0.19137,0 0.35813,0.1041 0.48253,0.29124 l 1.01284,1.47465 20.1864,0.87374 c 0.0425,10e-4 0.0848,0.003 0.1284,0.003 0.31849,0.0105 0.75589,0.0184 0.88574,0.55185 l 0.37726,1.45317 0.1107,0.42308 c 0.019,0.0431 0.0384,0.0921 0.0601,0.14115 0.75726,1.40259 1.95056,4.9267 0.3636,10.72562 -0.24742,0.87526 0.2187,1.19103 0.59733,1.64784 0.78596,0.41999 3.10013,1.40105 2.98256,2.39897 0.19002,3.22365 0.3349,7.79932 -2.8076,8.23618 -7.46465,1.10521 -17.1259,1.54363 -19.26508,2.10466 -0.53856,1.80574 -1.13453,3.36315 -1.6731,3.38155 -0.49482,0 -0.0874,-1.10369 0.11625,-2.33152 -0.003,-0.36789 -0.0105,-0.72812 -0.0272,-1.08375 l -1.34229,0.47671 -0.045,0.0183 c -0.30757,6.55922 -4.8648,11.78789 -10.38707,11.78789 -5.30357,0 -9.69542,-4.80252 -10.32281,-10.97085 h -0.0369 -1.10173 c 0.003,0.1089 0.003,0.2238 0.009,0.33262 -12.74634,0.42001 -40.771887,0.45835 -47.625511,0.40468 -2.152892,0.0536 -4.18955,-0.17473 -4.467034,0.0873 -0.144899,0.51045 -0.843385,1.45472 -1.368261,2.01575 -1.164608,1.24623 -0.683456,-0.0889 -0.565902,-1.36734 0.04365,-0.45374 0.07935,-0.91053 0.102599,-1.3704 h -0.0015 -0.989619 -0.006 c -0.667046,6.12082 -5.039752,10.86817 -10.325563,10.86817 -5.262576,0 -9.644859,-4.74735 -10.313285,-10.86817 h -0.0342 -1.122218 c 0.02325,0.35104 0.0519,0.68827 0.08865,1.01784 -3.506086,-0.64841 -11.3193,-0.50892 -13.837139,-2.11998 -1.934149,-1.22783 -2.618977,-3.60995 -3.142482,-5.46781 -0.128406,-0.34642 0.03,-1.60798 0.05865,-2.02799 z m 111.532181,-22.0521 -3.97356,-6.4044 c -1.58288,-2.56913 -2.34014,-2.73159 -3.96813,-2.83278 0.3636,2.34993 0.88165,4.75808 1.5856,7.3594 0.41691,1.50835 1.24252,2.23646 2.5944,2.28706 l 3.56759,0.15484 c -0.001,-0.25293 0.0628,-0.44148 0.1941,-0.5641 z"
       id="vehicle2"
       style="fill:#800000;stroke-width:1.44751549"
       inkscape:label="#path86" />
    <path
       inkscape:connector-curvature="0"
       d="m 232.80475,307.87759 0.72487,-0.23375 -0.0199,-1.31566 -0.39943,-0.16221 -0.069,-3.91631 0.8213,-0.37554 -0.0105,-0.76257 -0.69732,-0.1482 v -0.0574 h -0.0105 l -0.0483,-5.12466 h 0.005 l -0.005,-0.35382 c -0.20826,-1.91599 0.0105,-3.832 0.50619,-5.74162 0.11025,-0.69104 0.36675,-1.38207 0.7593,-2.07183 0,0 -0.005,0 -0.007,0 l 2.20729,-4.26119 3.53134,-6.88228 c 0.30648,-0.55563 0.85744,-1.46382 1.48417,-2.46525 0.91426,-1.46639 2.3967,-3.77837 3.11814,-4.83855 h 0.0292 c 2.9098,-4.57796 10.37368,-3.50628 17.90987,-4.29057 1.00725,-1.48427 10.79553,-2.15615 14.61788,-2.12039 1.11403,-0.15709 3.09751,-0.0651 3.30414,0.67829 0.74379,2.58658 0.91597,7.00617 1.38258,11.05021 0.0672,0.57098 -0.82128,1.13811 -0.74381,1.67586 0.73346,3.57527 0.39944,7.81218 0.52341,13.22169 0,0.0268 0,0.0549 0,0.0829 h 0.27722 l -0.27722,0.007 c 0,2.7731 -0.0567,5.54492 -0.0948,8.31546 h 0.0378 l -0.0378,0.0135 c -0.015,1.24794 -0.0293,2.49462 -0.0293,3.74003 h -6.16393 l 7.28827,0.0231 67.71216,-0.0716 0.012,1.39356 h 0.37532 v 3.82306 h -0.33744 l 0.0363,3.24699 h -7.86159 c 0,-0.007 0,-0.0153 0,-0.0231 0,4.25097 -4.66946,7.71381 -10.40125,7.71381 -3.7087,0 -7.1505,-1.50214 -8.9911,-3.832 h -1.86123 c -0.19125,0.21205 -0.75415,0.36787 -1.42047,0.36787 -0.6663,0 -1.22935,-0.15582 -1.42045,-0.36787 h -0.048 c -0.18075,0.21205 -0.75069,0.36787 -1.40841,0.36787 -0.66804,0 -1.22934,-0.15582 -1.42047,-0.36787 h -1.62189 c 0.007,-0.007 0.012,-0.0167 0.0199,-0.0231 -1.80271,2.30049 -5.16189,3.85372 -8.99799,3.85372 -4.29409,0 -8.24212,-2.01435 -9.74697,-4.99821 -0.40116,-0.84814 -0.64908,-1.80997 -0.64908,-2.71561 0,0.0153 0,0.0294 0,0.0435 h -3.87055 l -11.76834,0.0153 h -1.40841 l -4.00311,0.006 h -3.67082 c 0,10e-4 0,0.006 0,0.007 h 0.72486 l -1.64427,1.82785 c -1.13985,3.34023 -5.23078,5.82338 -10.07755,5.82338 -3.85335,0 -7.4071,-1.6235 -9.19085,-4.10153 l -9.39226,0.0135 c -2.3657,0.75746 -3.60194,-0.79323 -2.31578,-1.5775 l 9.15981,-0.0269 c -0.003,-0.33978 0.003,-0.68594 0.015,-1.03209 v 0 c -0.012,0.34615 -0.0199,0.69231 -0.015,1.03209 l -9.1684,0.0269 h -3.55547 c -1.21215,-0.0105 -1.82166,-0.65273 -1.70629,-4.11174 z m 44.84875,2.12166 c 0.33228,0.31806 0.53547,0.71403 0.53547,1.1445 0,1.03336 -1.13638,1.88278 -2.53789,1.88278 -1.3895,0 -2.52414,-0.84942 -2.52414,-1.88278 0,-0.43047 0.18949,-0.82644 0.52342,-1.1445 z m 208.01428,-0.21204 c 0,4.33399 -4.76588,7.87605 -10.61645,7.87605 -5.8437,0 -10.60785,-3.54206 -10.60785,-7.87605 0,-1.99776 1.01412,-3.82562 2.67563,-5.21664 -0.24801,0.20821 -0.48726,0.42024 -0.70421,0.64123 h -1.74243 c 0.28755,-0.39214 0.61125,-0.75747 0.96075,-1.09596 -1.3602,1.3131 -2.31751,3.02346 -2.54307,5.17575 0,0.26315 -0.0292,0.51605 -0.0877,0.75747 l -1.20867,-0.0216 c 0.13245,-1.69119 -0.69388,-3.37728 -1.99554,-4.81555 h -1.48245 c -0.34264,-0.26186 -0.67665,-0.50967 -1.021,-0.74213 -0.0757,-0.0625 -0.16025,-0.12 -0.2375,-0.18139 1.87328,1.42296 3.03204,3.36322 3.03204,5.49765 0,4.33399 -4.77621,7.87605 -10.61818,7.87605 -5.84196,0 -10.61818,-3.54206 -10.61818,-7.87605 0,-1.86618 0.88846,-3.58548 2.36228,-4.93946 -0.0567,0.0537 -0.12045,0.10485 -0.17898,0.15968 -0.0878,0.0716 -0.172,0.14175 -0.24801,0.20565 h -1.89913 c -0.91082,1.1662 -1.53584,2.57638 -1.71315,4.25734 l -1.21043,0.0984 c -0.29442,-1.2288 0.21174,-2.84463 1.37743,-4.38382 -0.0105,0.009 -0.0176,0.0179 -0.0251,0.0281 h -4.37677 v -3.71831 h 9.122 c -0.0979,0.0447 -0.18951,0.0945 -0.2841,0.14175 0.14625,-0.0716 0.29442,-0.138 0.44422,-0.20437 H 431.7738 c 0.56129,0.26824 0.92974,0.73447 0.92974,1.25946 v 0.58117 c 0,0.23886 -0.0757,0.46241 -0.21174,0.66422 -0.31165,0.5467 -1.01412,0.93373 -1.86469,0.93373 h -19.94846 c -1.1226,0 -2.02999,-0.67827 -2.02999,-1.50598 v -0.57992 c 0,-0.16989 0.043,-0.33592 0.11174,-0.48921 0.13245,-0.36021 0.44768,-0.66421 0.8609,-0.8622 H 292.89541 V 300.229 h -5.32715 v -0.0281 h -0.0176 v -1.94283 h 0.0176 v -36.84483 h 226.46833 v 38.81437 h -7.9856 v 1.20326 H 482.5884 c 4.19079,2.05138 6.97662,5.90895 6.32925,8.44191 l -1.2018,-0.0294 c 0.1188,-1.62222 -0.6405,-3.23678 -1.84403,-4.63035"
       id="vehicle3"
       style="fill:#800000;stroke-width:1.48299718"
       inkscape:label="#path16" />
  </g>
</svg>
