<?xml version="1.0" encoding="UTF-8" standalone="no"?>
<!-- Created with Inkscape (http://www.inkscape.org/) -->

<svg
   xmlns:dc="http://purl.org/dc/elements/1.1/"
   xmlns:cc="http://creativecommons.org/ns#"
   xmlns:rdf="http://www.w3.org/1999/02/22-rdf-syntax-ns#"
   xmlns:svg="http://www.w3.org/2000/svg"
   xmlns="http://www.w3.org/2000/svg"
   xmlns:sodipodi="http://sodipodi.sourceforge.net/DTD/sodipodi-0.dtd"
   xmlns:inkscape="http://www.inkscape.org/namespaces/inkscape"
   width="210mm"
   height="297mm"
   viewBox="0 0 744.09448819 1052.3622047"
   id="svg2"
   version="1.1"
   inkscape:version="0.92.3 (2405546, 2018-03-11)"
   sodipodi:docname="assets.svg">
  <defs
     id="defs4">
    <linearGradient
       id="linearGradient2682">
      <stop
         offset="0"
         style="stop-color:#e5e35a"
         id="stop2684" />
      <stop
         offset="1"
         style="stop-color:#f7971c"
         id="stop2686" />
    </linearGradient>
    <linearGradient
       id="linearGradient2674">
      <stop
         offset="0"
         style="stop-color:#d22121"
         id="stop2676" />
      <stop
         offset="1"
         style="stop-color:#f7641c"
         id="stop2678" />
    </linearGradient>
  </defs>
  <sodipodi:namedview
     id="base"
     pagecolor="#ffffff"
     bordercolor="#666666"
     borderopacity="1.0"
     inkscape:pageopacity="0.0"
     inkscape:pageshadow="2"
     inkscape:zoom="1.4142136"
     inkscape:cx="374.9186"
     inkscape:cy="950.79431"
     inkscape:document-units="px"
     inkscape:current-layer="layer1"
     showgrid="false"
     inkscape:window-width="1920"
     inkscape:window-height="1017"
     inkscape:window-x="-8"
     inkscape:window-y="-8"
     inkscape:window-maximized="1" />
  <metadata
     id="metadata7">
    <rdf:RDF>
      <cc:Work
         rdf:about="">
        <dc:format>image/svg+xml</dc:format>
        <dc:type
           rdf:resource="http://purl.org/dc/dcmitype/StillImage" />
        <dc:title />
      </cc:Work>
    </rdf:RDF>
  </metadata>
  <g
     inkscape:label="Layer 1"
     inkscape:groupmode="layer"
     id="layer1">
    <path
       inkscape:connector-curvature="0"
       d="m 604.71693,202.11348 -0.9665,-0.38958 0.0266,-2.19277 0.53258,-0.27035 0.092,-6.52718 -1.09506,-0.6259 0.014,-1.27095 0.92976,-0.247 v -0.0957 h 0.014 l 0.0644,-8.5411 h -0.006 l 0.006,-0.5897 c 0.27768,-3.19332 -0.014,-6.38667 -0.67492,-9.56937 -0.147,-1.15173 -0.489,-2.30345 -1.0124,-3.45305 0,0 0.006,0 0.01,0 l -2.94306,-7.10198 -4.70844,-11.47047 c -0.40864,-0.92605 -1.14326,-2.4397 -1.9789,-4.10875 -1.21902,-2.44398 -3.1956,-6.29728 -4.15752,-8.06425 h -0.039 c -3.87974,-7.62993 -13.83158,-5.8438 -23.87984,-7.15095 -1.343,-2.47378 -14.39404,-3.59358 -19.4905,-3.53398 -1.48538,-0.26182 -4.13002,-0.1085 -4.40552,1.13048 -0.99174,4.31097 -1.2213,11.67695 -1.84344,18.41702 -0.0896,0.95163 1.09504,1.89685 0.99174,2.7931 -0.97794,5.95878 -0.53258,13.0203 -0.69788,22.03615 0,0.0447 0,0.0915 0,0.13825 h -0.36962 l 0.36962,0.0125 c 0,4.62183 0.0756,9.24153 0.1264,13.8591 h -0.0504 l 0.0504,0.0225 c 0.02,2.0799 0.039,4.1577 0.039,6.23338 h 8.21858 l -9.7177,0.0385 -90.28288,-0.11925 -0.016,2.3226 h -0.50042 v 6.37177 h 0.44992 l -0.0484,5.41165 h 10.48212 c 0,-0.0125 0,-0.0255 0,-0.0385 0,7.08495 6.22594,12.85635 13.86834,12.85635 4.94492,0 9.534,-2.50357 11.98812,-6.38667 h 2.48164 c 0.255,0.35342 1.00554,0.61312 1.89396,0.61312 0.8884,0 1.63914,-0.2597 1.89394,-0.61312 h 0.064 c 0.241,0.35342 1.00092,0.61312 1.87788,0.61312 0.89072,0 1.63912,-0.2597 1.89396,-0.61312 h 2.16252 c -0.01,-0.0125 -0.016,-0.0278 -0.0266,-0.0385 2.40362,3.83415 6.88252,6.42287 11.99732,6.42287 5.72546,0 10.9895,-3.35725 12.99596,-8.33035 0.53488,-1.41357 0.86544,-3.01662 0.86544,-4.52602 0,0.0255 0,0.049 0,0.0725 h 5.16074 l 15.69112,0.0255 h 1.87788 l 5.33748,0.01 h 4.89442 c 0,0.002 0,0.01 0,0.0125 h -0.96648 l 2.19236,3.04642 c 1.5198,5.56705 6.97438,9.70563 13.43674,9.70563 5.1378,0 9.87612,-2.70583 12.25446,-6.83588 l 12.52302,0.0225 c 3.15426,1.26243 4.80258,-1.32205 3.0877,-2.62917 l -12.21308,-0.0448 c 0.004,-0.5663 -0.004,-1.14323 -0.02,-1.72015 v 0 c 0.016,0.57692 0.0266,1.15385 0.02,1.72015 l 12.22454,0.0448 h 4.74062 c 1.6162,-0.0175 2.42888,-1.08788 2.27506,-6.8529 z m -59.79834,3.5361 c -0.44304,0.5301 -0.71396,1.19005 -0.71396,1.9075 0,1.72227 1.51518,3.13797 3.38386,3.13797 1.85266,0 3.36552,-1.4157 3.36552,-3.13797 0,-0.71745 -0.25266,-1.3774 -0.6979,-1.9075 z m -277.35236,-0.3534 c 0,7.22332 6.3545,13.12675 14.15526,13.12675 7.7916,0 14.1438,-5.90343 14.1438,-13.12675 0,-3.3296 -1.35216,-6.37603 -3.5675,-8.6944 0.33068,0.34702 0.64968,0.7004 0.93894,1.06872 h 2.32324 c -0.3834,-0.65357 -0.815,-1.26245 -1.281,-1.8266 1.8136,2.1885 3.09002,5.0391 3.39076,8.62625 0,0.43858 0.039,0.86008 0.117,1.26245 l 1.61156,-0.036 c -0.1766,-2.81865 0.92518,-5.6288 2.66072,-8.02592 h 1.9766 c 0.45686,-0.43643 0.9022,-0.84945 1.36134,-1.23688 0.101,-0.10425 0.21366,-0.2 0.31666,-0.30232 -2.4977,2.3716 -4.04272,5.60537 -4.04272,9.16275 0,7.22332 6.36828,13.12675 14.15758,13.12675 7.78928,0 14.15756,-5.90343 14.15756,-13.12675 0,-3.1103 -1.1846,-5.9758 -3.1497,-8.23243 0.0756,0.0895 0.1606,0.17475 0.23864,0.26613 0.117,0.11925 0.22934,0.23625 0.33068,0.34275 h 2.53218 c 1.21442,1.94367 2.04778,4.29397 2.2842,7.09557 l 1.6139,0.164 c 0.39256,-2.048 -0.28232,-4.74105 -1.83658,-7.30637 0.014,0.015 0.0234,0.0298 0.0334,0.0468 h 5.8357 v -6.19718 h -12.16264 c 0.1306,0.0745 0.25268,0.1575 0.3788,0.23625 -0.195,-0.11925 -0.39256,-0.23 -0.5923,-0.34062 h 13.93258 c -0.7484,0.44707 -1.23966,1.22412 -1.23966,2.0991 v 0.96862 c 0,0.3981 0.101,0.77068 0.28232,1.10703 0.41554,0.91117 1.35216,1.55622 2.48626,1.55622 h 26.59794 c 1.4968,0 2.70666,-1.13045 2.70666,-2.50997 v -0.96653 c 0,-0.28315 -0.0574,-0.55987 -0.149,-0.81535 -0.1766,-0.60035 -0.5969,-1.10702 -1.14786,-1.437 h 155.6345 v -2.00542 h 7.10286 v -0.0468 h 0.0234 v -3.23805 h -0.0234 V 124.67293 H 229.74115 v 64.69062 h 10.64746 v 2.00543 h 31.28346 c -5.58772,3.41897 -9.30216,9.84825 -8.439,14.06985 l 1.6024,-0.049 c -0.1584,-2.7037 0.854,-5.39463 2.4587,-7.71725"
       id="vehicle1"
       style="fill:#800000;stroke-width:2.21072173"
       inkscape:label="#path16" />
    <path
       inkscape:connector-curvature="0"
       d="m 212.10051,177.61381 c 0.135,-1.16498 0.175,-1.83945 0,-4.02895 0.02,-1.57887 -1.37966,-2.53947 -2.52238,-2.45772 l -2.48232,-8.81921 c -0.85476,-2.04127 -2.69736,-3.70957 -5.74102,-4.84644 -9.66311,-3.62017 -24.11591,-6.95164 -39.11542,-8.14986 -8.94324,-9.25861 -23.02786,-21.90236 -30.47841,-24.38563 -1.39242,-0.86865 -2.37114,-1.55333 -3.63416,-2.14348 -0.67252,-1.06279 -1.59472,-2.00809 -3.04728,-2.35041 -3.76904,-0.64638 -7.64558,-1.14712 -11.72808,-1.51245 l 0.0566,-1.09602 c 0,-0.5825 -0.3299,-1.01938 -0.69984,-1.05003 l -2.73384,-0.23249 c -0.36996,-0.0308 -0.69986,0.49304 -0.69986,1.05002 l -0.053,1.00912 c -4.2028,-0.27087 -8.65162,-0.41132 -13.435797,-0.42407 l 0.0256,-0.81755 c 0,-0.58505 -0.3299,-1.02192 -0.69986,-1.05005 h -2.73564 c -0.36816,-0.0308 -0.69802,0.49565 -0.69802,1.05005 l -0.0254,0.8303 c -2.649999,0.0332 -5.447579,0.0917 -8.478478,0.194 -1.89726,0.0563 -3.68882,0.115 -5.343699,1.87012 h -2.13966 c -0.34628,0 -0.71446,0.33725 -0.78188,1.25952 -0.42464,0.2095 -0.60506,0.54675 -0.6798,0.83542 -0.0968,-0.002 -0.195,-0.005 -0.2898,-0.005 -3.074619,0 -4.913579,1.58397 -7.291978,6.27461 l -5.334579,10.52326 c -0.0674,-0.0225 -0.1384,-0.0408 -0.204,-0.0408 -0.25516,0 -0.47752,0.1735 -0.64338,0.4854 l -1.35046,2.45775 -26.915355,1.45624 c -0.0566,0.002 -0.113,0.005 -0.1712,0.005 -0.42466,0.0175 -1.00786,0.0307 -1.181,0.91975 l -0.50302,2.42195 -0.1476,0.70512 c -0.0254,0.0718 -0.0512,0.1535 -0.0802,0.23525 -1.009684,2.33765 -2.600769,8.21116 -0.4848,17.87602 0.3299,1.45877 -0.2916,1.98505 -0.796448,2.7464 -1.047957,0.69999 -4.133531,2.33509 -3.976781,3.99829 -0.25335,5.37274 -0.446528,12.99885 3.743496,13.72695 9.952932,1.84202 22.834669,2.57272 25.686929,3.50777 0.71808,3.00957 1.51272,5.60524 2.23082,5.63592 0.659759,0 0.1166,-1.83948 -0.155,-3.88587 0.004,-0.61315 0.014,-1.21353 0.0362,-1.80625 l 1.789719,0.79452 0.06,0.0305 c 0.4101,10.93203 6.486439,19.64647 13.849518,19.64647 7.071459,0 12.927298,-8.00419 13.763837,-18.28474 h 0.0492 1.46898 c -0.004,0.1815 -0.004,0.373 -0.012,0.55437 16.995216,0.70002 54.362826,0.76392 63.501046,0.67447 2.87054,0.0893 5.5861,-0.29122 5.95608,0.1455 0.1932,0.85075 1.12452,2.42452 1.82436,3.35957 1.55282,2.07705 0.91128,-0.14825 0.75454,-2.27889 -0.0582,-0.75623 -0.1058,-1.51755 -0.1368,-2.284 h 0.002 1.3195 0.008 c 0.8894,10.20136 6.71972,18.1136 13.7675,18.1136 7.01681,0 12.85989,-7.91224 13.75113,-18.1136 h 0.0456 1.4963 c -0.031,0.58507 -0.0692,1.14712 -0.1182,1.6964 4.6748,-1.08068 15.09249,-0.8482 18.44963,-3.5333 2.57888,-2.04639 3.49198,-6.01659 4.19,-9.11301 0.1712,-0.57737 -0.04,-2.67997 -0.0782,-3.37999 z m -148.710462,-36.75347 5.298119,-10.674 c 2.11052,-4.28187 3.1202,-4.55265 5.290859,-4.7213 -0.484799,3.91655 -1.175539,7.93014 -2.114139,12.26566 -0.55588,2.51392 -1.6567,3.72744 -3.45922,3.81177 l -4.756819,0.25807 c 0.0018,-0.42155 -0.0838,-0.7358 -0.2588,-0.94017 z"
       id="vehicle0"
       style="fill:#800000;stroke-width:2.15783429"
       inkscape:label="#path86" />
    <g
       transform="matrix(0.89285715,0,0,0.89285651,25.977543,-552.77245)"
       id="log0"
       inkscape:label="#g4">
      <path
         inkscape:connector-curvature="0"
         d="m 41.545227,1011.8031 c -1.61181,0 -3.19839,0.2202 -4.4375,0.8438 -0.36721,0.1762 -0.60257,0.5947 -0.5625,1 l 0.875,7.9687 -23.875,0.1875 c -2.93564,0 -5.4746096,1.9681 -7.2187496,4.875 -1.74414,2.9069 -2.78125,6.8208 -2.78125,11.1251 0,4.3042 1.03711,8.1869 2.78125,11.0938 1.74414,2.9068 4.2831096,4.9062 7.2187496,4.9062 21.92259,-1.6937 44.06472,-3.3801 66.0625,-5.0625 0.0842,10e-5 0.16843,-0.01 0.25,-0.031 1.94466,-0.6524 3.70526,-2.5794 5.15625,-4.9687 1.45099,-2.3893 2.53125,-5.2818 2.53125,-8.0625 0,-4.3564 -2.02246,-10.5665 -6.40625,-13.8751 -0.17148,-0.123 -0.3827,-0.1898 -0.59375,-0.1875 h -29.28125 l -4.84375,-8.5625 c -0.1003,-0.1754 -0.25512,-0.3192 -0.4375,-0.4062 -1.49996,-0.5856 -3.08681,-0.8365 -4.4375,-0.8441 z m 3.78125,3.4375 4.46875,7.8437 c 0.1679,0.3164 0.5168,0.5282 0.875,0.5313 h 29.5 c 3.46641,2.8013 5.375,8.4498 5.375,12.0626 0,2.2507 -0.91974,4.8921 -2.21875,7.0312 -1.29204,2.1275 -3.00561,3.7283 -4.0625,4.0938 -20.14592,1.5273 -40.29173,3.0618 -60.43745,4.5938 0.71863,-0.7143 1.37227,-1.558 1.9375,-2.5 1.74414,-2.9069 2.78125,-6.7895 2.78125,-11.0938 0,-4.3043 -1.03711,-8.2182 -2.78125,-11.1251 -0.68411,-1.1402 -1.50161,-2.1171 -2.40625,-2.9062 l 20.1875,-0.1563 c 0.56796,0 1.07095,-0.5615 1,-1.125 l -0.75,-6.7187 c 0.87182,0.3575 1.80936,0.5312 2.75,0.5312 1.39493,-0.1456 2.78176,-0.4314 3.7812,-1.0625 z m -31.78125,8.5625 c 2.03492,0 3.98678,1.3843 5.5,3.9062 1.51322,2.5221 2.5,6.1139 2.5,10.0939 0,3.9801 -0.98678,7.5716 -2.5,10.0938 -1.54003,2.089 -3.13484,3.7091 -5.5,3.9062 -2.03492,0 -3.9867796,-1.3844 -5.4999996,-3.9062 -1.51322,-2.5222 -2.5,-6.1137 -2.5,-10.0938 0,-3.98 0.98678,-7.5718 2.5,-10.0939 1.51322,-2.522 3.4650796,-3.9062 5.4999996,-3.9062 z m 18,4 v 2 h 32 v -2 z m -18,1 c 0.84028,0 1.84242,0.7474 2.65625,2.3751 0.81383,1.6275 1.34375,3.9987 1.34375,6.625 0,2.6264 -0.52992,4.9973 -1.34375,6.625 -0.81383,1.6277 -1.81599,2.375 -2.65625,2.375 -0.84026,0 -1.84242,-0.7473 -2.65625,-2.375 -0.81383,-1.6277 -1.3437496,-3.9986 -1.3437496,-6.625 0,-2.6263 0.5299196,-4.9975 1.3437496,-6.625 0.81383,-1.6277 1.81596,-2.3751 2.65625,-2.3751 z m 30,5.0001 v 2 h 32 v -2 z m 34.90625,6 -51,4 0.1875,1.9688 51,-4 z"
         style="color:#000000;text-indent:0;text-transform:none;direction:ltr;baseline-shift:baseline;display:inline;overflow:visible;visibility:visible;fill:#000000;fill-opacity:1;stroke:none;enable-background:accumulate"
         marker="none"
         visibility="visible"
         display="inline"
         overflow="visible"
         id="path2" />
    </g>
    <g
       transform="matrix(1.7123288,0,0,0.70488722,133.78929,331.98101)"
       id="log1"
       inkscape:label="#g30">
      <path
         inkscape:connector-curvature="0"
         class="st0"
         d="M 75.6,18.4 H 14.2 c -7.3,0 -13,11.7 -13,26.6 0,14.9 5.7,26.6 13.1,26.6 H 75.7 C 83,71.6 88.8,59.9 88.8,45 88.7,30.1 82.9,18.4 75.6,18.4 Z M 3.2,45 c 0,-13.3 5,-24.5 11,-24.5 6,0 11,11.2 11,24.5 0,13.3 -5,24.5 -11,24.5 -6,0 -11,-11.2 -11,-24.5 z M 75.6,69.5 H 19.4 c 1.4,-1.2 2.6,-2.8 3.7,-4.7 h 15.7 v -2 H 24 c 0.7,-1.6 1.3,-3.4 1.8,-5.3 h 11.8 v -2 H 26.3 c 0.6,-3 1,-6.3 1,-9.8 h 15.2 v -2 H 27.3 C 27.1,37 25.8,31.1 23.7,26.7 H 48 v -2 H 22.6 c -1,-1.6 -2.1,-3 -3.2,-4 h 56.2 c 3.6,0 6.9,4.2 8.9,10.4 H 69.2 v 2 h 15.9 c 0.8,3.2 1.3,6.8 1.5,10.6 H 65 v 2 h 21.6 c 0,1.6 -0.1,3.1 -0.3,4.6 H 61.2 v 2 h 24.9 c -0.6,4 -1.6,7.7 -3,10.5 H 61.2 v 2 H 82 c -1.8,3 -4,4.7 -6.4,4.7 z"
         id="path4" />
      <path
         inkscape:connector-curvature="0"
         class="st0"
         d="m 14.2,25 c -4.8,0 -8.4,8.6 -8.4,20 0,11.4 3.6,20 8.4,20 4.8,0 8.4,-8.6 8.4,-20 0,-11.4 -3.6,-20 -8.4,-20 z m 0,38 c -3,0 -6.3,-7.4 -6.3,-18 0,-10.6 3.3,-18 6.3,-18 3,0 6.3,7.4 6.3,18 0.1,10.6 -3.3,18 -6.3,18 z"
         id="path6" />
      <rect
         x="30.6"
         y="37.299999"
         class="st0"
         width="26.4"
         height="2"
         id="rect8" />
      <rect
         x="31.1"
         y="30.9"
         class="st0"
         width="12.8"
         height="2"
         id="rect10" />
      <rect
         x="49"
         y="30.9"
         class="st0"
         width="12.8"
         height="2"
         id="rect12" />
      <rect
         x="41.599998"
         y="55.400002"
         class="st0"
         width="12.8"
         height="2"
         id="rect14" />
      <rect
         x="59.5"
         y="37.299999"
         class="st0"
         width="6.4000001"
         height="2"
         id="rect16" />
      <rect
         x="75.599998"
         y="55.400002"
         class="st0"
         width="6.4000001"
         height="2"
         id="rect18" />
      <rect
         x="57"
         y="55.400002"
         class="st0"
         width="6.4000001"
         height="2"
         id="rect20" />
      <rect
         x="43.099998"
         y="50.200001"
         class="st0"
         width="6.4000001"
         height="2"
         id="rect22" />
      <rect
         x="56.900002"
         y="24.4"
         class="st0"
         width="22.6"
         height="2"
         id="rect24" />
      <rect
         x="46.299999"
         y="43.5"
         class="st0"
         width="15.5"
         height="2"
         id="rect26" />
      <rect
         x="42.5"
         y="62.700001"
         class="st0"
         width="15.5"
         height="2"
         id="rect28" />
    </g>
    <path
       inkscape:connector-curvature="0"
       d="m 57.335329,91.861165 c -0.081,0 -0.158965,0.01763 -0.232275,0.05287 l -3.350741,-0.755175 2.869991,-2.231236 c 0.01285,0 0.02515,0 0.0376,0 0.37295,0 0.675225,-0.4479 0.675225,-0.999849 0,-0.552263 -0.302275,-1.000062 -0.675225,-1.000062 -0.287325,0 -0.53219,0.265524 -0.62975,0.639674 l -2.823527,2.090274 1.40251,-4.252248 c 0.25779,-0.141124 0.44124,-0.5078 0.44124,-0.937862 0,-0.552262 -0.30224,-1.000149 -0.675174,-1.000149 -0.37294,0 -0.675176,0.447887 -0.675176,1.000149 0,0.08925 0.0088,0.176412 0.02285,0.2589 l -1.2953,4.239486 -5.0628,4.498109 2.959875,-8.765933 c 3.115547,-8.881506 -7.789418,-1.153524 -7.789418,-1.153524 1.869625,-5.305646 -0.155635,-15.571253 -0.155635,-15.571253 5.608274,2.652811 6.07575,-4.844285 6.07575,-4.844285 l 0.856684,-4.092335 2.761176,-1.382049 c 0.05775,0.02375 0.118624,0.03663 0.18145,0.03663 0.37295,0 0.675224,-0.447575 0.675224,-0.999812 0,-0.552225 -0.302274,-0.999787 -0.675224,-0.999787 -0.289976,0 -0.537476,0.271187 -0.63271,0.65145 l -2.46589,1.480086 0.947264,-3.691935 c 0.19945,-0.173775 0.33346,-0.494775 0.33346,-0.862262 0,-0.552212 -0.302274,-0.999787 -0.675224,-0.999787 -0.372936,0 -0.67516,0.447575 -0.67516,0.999812 0,0.172 0.0291,0.333587 0.08087,0.475125 l -1.10154,3.61771 -0.65366,-3.434973 c 0.05713,-0.146863 0.09025,-0.317387 0.09025,-0.499162 0,-0.552237 -0.302624,-1.000049 -0.675514,-1.000049 -0.37295,0 -0.674886,0.447812 -0.674886,1.000049 0,0.363562 0.131036,0.681949 0.327176,0.856837 l 0.80751,3.999997 -0.93461,4.72906 c -1.090576,3.575736 -3.972565,0.692 -3.972565,0.692 L 41.444505,59.899533 C 41.28887,57.246722 39.653145,56.20861 39.653145,56.20861 39.497245,52.748337 38.09538,54.593673 38.09538,54.593673 37.10133,53.214087 35.513405,53.227825 34.91052,53.290249 v 0 0 c -0.15299,0.01537 -0.24254,0.03463 -0.24254,0.03463 0,0 -2.1812,-0.461338 -3.4274,1.268774 0,0 -1.40215,-1.845312 -1.5581,1.614937 0,0 -1.635725,1.038136 -1.7913,3.690922 l -0.934575,3.806198 c 0,0 -2.881935,2.883711 -3.972875,-0.692025 l -0.934349,-4.729059 0.807574,-3.999985 c 0.195775,-0.174863 0.32714,-0.493263 0.32714,-0.85685 0,-0.552237 -0.30224,-1.000049 -0.675174,-1.000049 -0.37294,0 -0.675176,0.447812 -0.675176,1.000049 0,0.1817 0.03285,0.35225 0.09025,0.499162 l -0.653574,3.435011 -1.101576,-3.617736 c 0.0515,-0.141575 0.08088,-0.303124 0.08088,-0.475124 0,-0.552213 -0.3026,-0.999812 -0.67554,-0.999812 -0.372886,0 -0.675176,0.447599 -0.675176,0.999812 0,0.367537 0.13405,0.688587 0.33345,0.862262 l 0.947266,3.691922 -2.46554,-1.480048 c -0.0955,-0.380288 -0.34275,-0.651476 -0.63305,-0.651476 -0.372936,0 -0.675226,0.447538 -0.675226,0.999775 0,0.55225 0.30229,0.999837 0.675226,0.999837 0.06313,0 0.12375,-0.01325 0.1815,-0.03663 l 2.761464,1.382049 0.856676,4.092335 c 0,0 0.4672,7.497121 6.075734,4.84431 0,0 -2.025235,10.265581 -0.1559,15.571228 0,0 -10.90496,-7.728057 -7.78915,1.153512 l 2.95989,8.765958 -5.063074,-4.498147 -1.295016,-4.239524 c 0.01475,-0.0825 0.02285,-0.169574 0.02285,-0.258862 0,-0.55225 -0.30225,-1.000136 -0.675185,-1.000136 -0.37294,0 -0.67549,0.447886 -0.67549,1.000136 0,0.430075 0.183765,0.79685 0.441275,0.937874 l 1.402465,4.252261 -2.8232,-2.090299 c -0.0975,-0.374124 -0.34275,-0.639662 -0.62974,-0.639662 -0.37295,0 -0.67551,0.447825 -0.67551,1.00005 0,0.551974 0.30261,0.999862 0.67551,0.999862 0.01285,0 0.02515,0 0.0376,0 l 2.87029,2.231223 -3.3511,0.755175 c -0.073,-0.03437 -0.151265,-0.05287 -0.23224,-0.05287 -0.425375,0 -0.7704,0.510686 -0.7704,1.140798 0,0.6301 0.345025,1.140787 0.7704,1.140787 0.229265,0 0.435015,-0.148175 0.576,-0.383487 l 4.175925,-1.216186 5.0628,4.382948 c 0,0 8.445724,7.022021 5.5306,-3.921586 0,0 1.323814,1.960773 2.33644,2.076186 0,0 2.2383,1.086524 3.57671,1.044774 0,5.5e-4 1.322849,1.89521 2.817574,0 1.338465,0.04187 3.57639,-1.044774 3.57639,-1.044774 1.012625,-0.115375 2.336775,-2.076186 2.336775,-2.076186 -2.915425,10.943607 5.53031,3.921586 5.53031,3.921586 l 5.063075,-4.382948 4.175591,1.216186 c 0.1411,0.2354 0.34675,0.383487 0.57601,0.383487 0.42565,0 0.7704,-0.510687 0.7704,-1.140787 0,-0.630186 -0.34475,-1.140874 -0.7704,-1.140874 z"
       id="frogUp"
       inkscape:label="#path6"
       style="fill:#008000;stroke-width:0.02424624" />
    <path
       inkscape:connector-curvature="0"
       d="m 105.21439,61.657038 c 0.081,0 0.15896,-0.01863 0.23227,-0.053 l 3.35075,0.755162 -2.87,2.231247 c -0.0125,0 -0.0251,0 -0.0376,0 -0.37294,0 -0.67522,0.447888 -0.67522,0.999849 0,0.552237 0.30228,1.000049 0.67522,1.000049 0.28732,0 0.5322,-0.265513 0.62975,-0.639662 l 2.82353,-2.090284 -1.40252,4.252244 c -0.25778,0.141062 -0.44124,0.507799 -0.44124,0.937874 0,0.552237 0.30224,1.000124 0.67518,1.000124 0.37294,0 0.67518,-0.447887 0.67518,-1.000124 0,-0.08938 -0.009,-0.176375 -0.0227,-0.258925 l 1.2953,-4.239457 5.0628,-4.498107 -2.95987,8.765914 c -3.11555,8.881476 7.78941,1.153524 7.78941,1.153524 -1.86962,5.305618 0.15562,15.571216 0.15562,15.571216 -5.60826,-2.652808 -6.07573,4.844269 -6.07573,4.844269 l -0.85669,4.09232 -2.76118,1.382048 c -0.0577,-0.02375 -0.11874,-0.0365 -0.18146,-0.0365 -0.37294,0 -0.67521,0.447587 -0.67521,0.999824 0,0.552237 0.30227,0.999787 0.67521,0.999787 0.28998,0 0.53749,-0.2712 0.63273,-0.65145 l 2.46587,-1.480073 -0.94726,3.69192 c -0.19944,0.173662 -0.33345,0.494773 -0.33345,0.862233 0,0.55223 0.30227,0.99982 0.67523,0.99982 0.37294,0 0.67516,-0.44759 0.67516,-0.99983 0,-0.17195 -0.0293,-0.3336 -0.081,-0.475099 l 1.10154,-3.61772 0.65366,3.434958 c -0.0571,0.1469 -0.0902,0.317386 -0.0902,0.499161 0,0.55224 0.30261,1.00006 0.6755,1.00006 0.37295,0 0.6749,-0.44782 0.6749,-1.00006 0,-0.363561 -0.13109,-0.681923 -0.32717,-0.856835 l -0.80753,-3.999983 0.93463,-4.729056 c 1.09057,-3.575708 3.97254,-0.691999 3.97254,-0.691999 l 0.93496,3.806133 c 0.15562,2.652796 1.79134,3.69092 1.79134,3.69092 0.1559,3.46024 1.55778,1.614935 1.55778,1.614935 0.99405,1.379555 2.58196,1.365825 3.18485,1.303405 v 0 0 c 0.15299,-0.0159 0.24255,-0.0348 0.24255,-0.0348 0,0 2.1812,0.46134 3.42738,-1.268771 0,0 1.40216,1.845311 1.5581,-1.614935 0,0 1.63573,-1.038136 1.79132,-3.690907 l 0.93456,-3.806171 c 0,0 2.88192,-2.883708 3.97288,0.691999 l 0.93434,4.729057 -0.80758,3.999981 c -0.19576,0.1749 -0.32712,0.493262 -0.32712,0.856847 0,0.55223 0.30222,1.00006 0.67517,1.00006 0.37293,0 0.67516,-0.44783 0.67516,-1.00006 0,-0.181783 -0.033,-0.352259 -0.0901,-0.499171 l 0.65358,-3.434996 1.10159,3.61772 c -0.0514,0.141524 -0.081,0.303127 -0.081,0.475127 0,0.55221 0.3026,0.9998 0.67555,0.9998 0.37288,0 0.67518,-0.44759 0.67518,-0.9998 0,-0.367529 -0.13408,-0.688577 -0.33347,-0.862251 l -0.94726,-3.691921 2.46555,1.480062 c 0.0956,0.380249 0.34275,0.651449 0.63305,0.651449 0.37293,0 0.67523,-0.447537 0.67523,-0.999774 0,-0.552237 -0.3023,-0.999824 -0.67523,-0.999824 -0.063,0 -0.12375,0.0125 -0.1815,0.0365 l -2.76147,-1.382049 -0.85668,-4.092319 c 0,0 -0.4672,-7.49709 -6.07574,-4.844281 0,0 2.02524,-10.265562 0.1559,-15.571192 0,0 10.90496,7.728027 7.78915,-1.153511 l -2.95987,-8.765927 5.06306,4.49812 1.29502,4.239532 c -0.0149,0.08262 -0.0229,0.1695 -0.0229,0.25885 0,0.552236 0.30224,1.000136 0.67518,1.000136 0.37294,0 0.6755,-0.4479 0.6755,-1.000136 0,-0.430062 -0.18378,-0.79685 -0.44128,-0.937862 l -1.40247,-4.252269 2.8232,2.090297 c 0.0975,0.374136 0.34275,0.639674 0.62975,0.639674 0.37294,0 0.6755,-0.447812 0.6755,-1.000048 0,-0.551962 -0.30261,-0.999862 -0.6755,-0.999862 -0.0125,0 -0.0251,0 -0.0376,0 l -2.8703,-2.231235 3.35112,-0.755162 c 0.073,0.03437 0.15126,0.053 0.23222,0.053 0.42538,0 0.77041,-0.510686 0.77041,-1.140797 0,-0.630112 -0.34503,-1.1408 -0.77041,-1.1408 -0.22925,0 -0.435,0.148126 -0.57599,0.3835 l -4.17593,1.216199 -5.0628,-4.382957 c 0,0 -8.44572,-7.021991 -5.53058,3.921582 0,0 -1.32384,-1.96076 -2.33645,-2.076185 0,0 -2.2383,-1.086523 -3.57671,-1.044773 0,-5.5e-4 -1.32286,-1.895198 -2.81759,0 -1.33845,-0.04187 -3.57637,1.044773 -3.57637,1.044773 -1.01262,0.115375 -2.33677,2.076185 -2.33677,2.076185 2.91541,-10.943573 -5.53033,-3.921582 -5.53033,-3.921582 l -5.06307,4.382957 -4.17559,-1.216199 c -0.14104,-0.235387 -0.34674,-0.3835 -0.576,-0.3835 -0.42566,0 -0.77041,0.510688 -0.77041,1.1408 0,0.630186 0.34475,1.140872 0.77041,1.140872 z"
       id="frogDown"
       inkscape:label="#path6"
       style="fill:#008000;stroke-width:0.02424622" />
    <path
       inkscape:connector-curvature="0"
       d="m 252.05492,53.187836 c 0,0.081 0.0186,0.158963 0.053,0.232275 l -0.75516,3.35075 -2.23125,-2.87 c 0,-0.0125 0,-0.02513 0,-0.03763 0,-0.372937 -0.44789,-0.675213 -0.99985,-0.675213 -0.55224,0 -1.00005,0.302276 -1.00005,0.675213 0,0.287325 0.26551,0.5322 0.63966,0.62975 l 2.09029,2.823525 -4.25225,-1.402513 c -0.14107,-0.257787 -0.5078,-0.441237 -0.93787,-0.441237 -0.55224,0 -1.00013,0.302237 -1.00013,0.675174 0,0.372938 0.44789,0.675176 1.00013,0.675176 0.0894,0 0.17637,-0.0087 0.25892,-0.02275 l 4.23946,1.2953 4.49811,5.062799 -8.76592,-2.959874 c -8.88149,-3.11555 -1.15353,7.789411 -1.15353,7.789411 -5.30562,-1.869625 -15.57123,0.155625 -15.57123,0.155625 2.65281,-5.608262 -4.84428,-6.075737 -4.84428,-6.075737 l -4.09232,-0.856687 -1.38205,-2.761175 c 0.0237,-0.05775 0.0365,-0.11875 0.0365,-0.181462 0,-0.372938 -0.44759,-0.675213 -0.99982,-0.675213 -0.55224,0 -0.99979,0.302275 -0.99979,0.675213 0,0.289975 0.2712,0.537487 0.65145,0.632725 l 1.48007,2.465874 -3.69192,-0.947262 c -0.17366,-0.199438 -0.49478,-0.33345 -0.86224,-0.33345 -0.55222,0 -0.99981,0.302275 -0.99981,0.675225 0,0.372937 0.44759,0.675163 0.99983,0.675163 0.17194,0 0.3336,-0.02925 0.4751,-0.081 l 3.61772,1.101537 -3.43496,0.653662 c -0.1469,-0.05713 -0.31739,-0.09025 -0.49916,-0.09025 -0.55224,0 -1.00006,0.302613 -1.00006,0.6755 0,0.37295 0.44782,0.6749 1.00006,0.6749 0.36356,0 0.68192,-0.131087 0.85683,-0.327175 l 3.99999,-0.807525 4.72906,0.934625 c 3.57571,1.090575 0.692,3.97255 0.692,3.97255 l -3.80614,0.93495 c -2.6528,0.155624 -3.69092,1.791349 -3.69092,1.791349 -3.46025,0.1559 -1.61494,1.557775 -1.61494,1.557775 -1.37956,0.99405 -1.36582,2.581962 -1.30341,3.18485 v 0 0 c 0.0159,0.152987 0.0347,0.24255 0.0347,0.24255 0,0 -0.46134,2.1812 1.26878,3.427387 0,0 -1.84532,1.402149 1.61494,1.558099 0,0 1.03814,1.635726 3.69091,1.791313 l 3.80617,0.934562 c 0,0 2.88372,2.881925 -0.69199,3.972875 l -4.72907,0.934337 -3.99998,-0.807575 c -0.1749,-0.195762 -0.49327,-0.327124 -0.85686,-0.327124 -0.55222,0 -1.00004,0.302224 -1.00004,0.675174 0,0.372938 0.44782,0.675163 1.00004,0.675163 0.18179,0 0.35226,-0.033 0.49919,-0.09013 l 3.43499,0.653575 -3.61772,1.101588 c -0.14153,-0.05137 -0.30313,-0.081 -0.47513,-0.081 -0.55221,0 -0.9998,0.3026 -0.9998,0.675549 0,0.372888 0.44759,0.675175 0.9998,0.675175 0.36753,0 0.68858,-0.134075 0.86226,-0.333462 l 3.69192,-0.947262 -1.48006,2.465549 c -0.38026,0.09562 -0.65146,0.34275 -0.65146,0.633051 0,0.372935 0.44754,0.675225 0.99978,0.675225 0.55224,0 0.99982,-0.30229 0.99982,-0.675225 0,-0.063 -0.0125,-0.12375 -0.0365,-0.181501 l 1.38205,-2.761475 4.09232,-0.856674 c 0,0 7.4971,-0.467201 4.8443,-6.075738 0,0 10.26557,2.025237 15.5712,0.1559 0,0 -7.72804,10.904963 1.15351,7.78915 l 8.76594,-2.959875 -4.49813,5.063063 -4.23953,1.295025 c -0.0826,-0.0149 -0.1695,-0.02275 -0.25885,-0.02275 -0.55224,0 -1.00014,0.30225 -1.00014,0.675184 0,0.37294 0.4479,0.6755 1.00014,0.6755 0.43006,0 0.79685,-0.183774 0.93786,-0.441274 l 4.25228,-1.402476 -2.0903,2.823205 c -0.37414,0.0975 -0.63968,0.342752 -0.63968,0.629752 0,0.372935 0.44782,0.6755 1.00006,0.6755 0.55196,0 0.99986,-0.302615 0.99986,-0.6755 0,-0.0125 0,-0.02515 0,-0.0376 l 2.23123,-2.870307 0.75516,3.351117 c -0.0344,0.073 -0.053,0.151265 -0.053,0.232225 0,0.42539 0.51069,0.770415 1.1408,0.770415 0.63011,0 1.14081,-0.345025 1.14081,-0.770415 0,-0.22925 -0.14813,-0.435 -0.3835,-0.575985 l -1.21621,-4.175931 4.38297,-5.062799 c 0,0 7.02199,-8.445724 -3.92159,-5.530586 0,0 1.96076,-1.323838 2.07619,-2.33645 0,0 1.08652,-2.2383 1.04477,-3.576712 5e-4,0 1.8952,-1.32285 0,-2.817588 0.0419,-1.338449 -1.04477,-3.576374 -1.04477,-3.576374 -0.11538,-1.012612 -2.07619,-2.336762 -2.07619,-2.336762 10.94358,2.915412 3.92159,-5.530325 3.92159,-5.530325 l -4.38297,-5.063074 1.21621,-4.175587 c 0.23538,-0.14105 0.3835,-0.34675 0.3835,-0.576 0,-0.425662 -0.5107,-0.770412 -1.14081,-0.770412 -0.63018,0 -1.14087,0.34475 -1.14087,0.770412 z"
       id="frogLeft"
       inkscape:label="#path6"
       style="fill:#008000;stroke-width:0.02424623" />
    <path
       inkscape:connector-curvature="0"
       d="m 334.57353,95.197774 c 0,-0.081 -0.0187,-0.158964 -0.053,-0.232274 l 0.75516,-3.350752 2.23126,2.870002 c 0,0.0125 0,0.02515 0,0.03765 0,0.372935 0.44788,0.67521 0.99984,0.67521 0.55224,0 1.00006,-0.302275 1.00006,-0.67521 0,-0.287325 -0.26552,-0.5322 -0.63967,-0.62975 l -2.09029,-2.823526 4.25225,1.40251 c 0.14107,0.25779 0.5078,0.44124 0.93788,0.44124 0.55223,0 1.00013,-0.30224 1.00013,-0.675175 0,-0.37294 -0.4479,-0.675175 -1.00013,-0.675175 -0.0894,0 -0.17638,0.0088 -0.25893,0.02275 l -4.23946,-1.2953 -4.49811,-5.062802 8.76592,2.959876 c 8.88149,3.11555 1.15353,-7.789426 1.15353,-7.789426 5.30563,1.869638 15.57125,-0.155624 15.57125,-0.155624 -2.65283,5.608274 4.84426,6.07575 4.84426,6.07575 l 4.09233,0.856686 1.38205,2.761174 c -0.0237,0.05775 -0.0365,0.11875 -0.0365,0.181466 0,0.372934 0.44758,0.67521 0.99982,0.67521 0.55224,0 0.99979,-0.302276 0.99979,-0.67521 0,-0.289976 -0.2712,-0.53749 -0.65145,-0.632726 l -1.48008,-2.465876 3.69192,0.947262 c 0.17367,0.19944 0.49478,0.33345 0.86224,0.33345 0.55222,0 0.99982,-0.302276 0.99982,-0.675226 0,-0.372934 -0.4476,-0.67516 -0.99983,-0.67516 -0.17195,0 -0.3336,0.02925 -0.4751,0.081 l -3.61773,-1.101538 3.43497,-0.653662 c 0.1469,0.05713 0.31739,0.09025 0.49916,0.09025 0.55223,0 1.00005,-0.302613 1.00005,-0.6755 0,-0.37295 -0.44782,-0.6749 -1.00005,-0.6749 -0.36356,0 -0.68193,0.131087 -0.85684,0.327174 l -3.99999,0.807526 -4.72905,-0.934626 C 359.84529,83.123948 362.729,80.24196 362.729,80.24196 l 3.80614,-0.93495 c 2.6528,-0.155625 3.69093,-1.791338 3.69093,-1.791338 3.46025,-0.1559 1.61493,-1.557787 1.61493,-1.557787 1.37956,-0.99405 1.36583,-2.581963 1.30342,-3.18485 v 0 0 c -0.0159,-0.152987 -0.0347,-0.24255 -0.0347,-0.24255 0,0 0.46134,-2.181187 -1.26877,-3.427387 0,0 1.84531,-1.40215 -1.61494,-1.558088 0,0 -1.03813,-1.635738 -3.69091,-1.791325 l -3.80618,-0.93455 c 0,0 -2.88371,-2.881938 0.69201,-3.972888 l 4.72906,-0.934337 3.99998,0.807574 c 0.1749,0.195763 0.49327,0.327126 0.85685,0.327126 0.55223,0 1.00006,-0.302226 1.00006,-0.675176 0,-0.372937 -0.44783,-0.675162 -1.00006,-0.675162 -0.18178,0 -0.35226,0.033 -0.49917,0.09013 l -3.435,-0.653563 3.61773,-1.101587 c 0.14152,0.05137 0.30312,0.081 0.47512,0.081 0.55221,0 0.9998,-0.3026 0.9998,-0.675563 0,-0.372874 -0.44759,-0.675162 -0.9998,-0.675162 -0.36752,0 -0.68858,0.134075 -0.86225,0.333462 l -3.69193,0.94725 1.48007,-2.46555 c 0.38025,-0.09562 0.65145,-0.34275 0.65145,-0.633037 0,-0.372937 -0.44754,-0.675225 -0.99978,-0.675225 -0.55224,0 -0.99982,0.302288 -0.99982,0.675225 0,0.063 0.0125,0.12375 0.0365,0.1815 l -1.38205,2.761463 -4.09232,0.856687 c 0,0 -7.4971,0.4672 -4.84429,6.075738 0,0 -10.26557,-2.025251 -15.57121,-0.155913 0,0 7.72803,-10.904962 -1.15352,-7.789138 l -8.76593,2.959876 4.49813,-5.063063 4.23953,-1.295025 c 0.0826,0.01487 0.1695,0.02275 0.25885,0.02275 0.55224,0 1.00014,-0.302251 1.00014,-0.675188 0,-0.372938 -0.4479,-0.675512 -1.00014,-0.675512 -0.43006,0 -0.79685,0.183787 -0.93786,0.441287 l -4.25228,1.402475 2.0903,-2.8232 c 0.37414,-0.0975 0.63968,-0.34275 0.63968,-0.629762 0,-0.372938 -0.44781,-0.675488 -1.00006,-0.675488 -0.55196,0 -0.99986,0.302612 -0.99986,0.675488 0,0.0125 0,0.02513 0,0.03763 l -2.23123,2.870313 -0.75516,-3.351113 c 0.0343,-0.073 0.053,-0.151274 0.053,-0.232237 0,-0.425387 -0.5107,-0.7704 -1.1408,-0.7704 -0.63012,0 -1.14081,0.345013 -1.14081,0.7704 0,0.22925 0.14813,0.435 0.3835,0.576 l 1.21621,4.175925 -4.38297,5.0628 c 0,0 -7.022,8.445726 3.92159,5.530588 0,0 -1.96076,1.323837 -2.07619,2.33645 0,0 -1.08652,2.2383 -1.04477,3.576712 -5e-4,0 -1.8952,1.32285 0,2.817588 -0.0419,1.33845 1.04477,3.576375 1.04477,3.576375 0.11538,1.012613 2.07619,2.336763 2.07619,2.336763 -10.94359,-2.915413 -3.92159,5.530324 -3.92159,5.530324 l 4.38297,5.063074 -1.21621,4.175591 c -0.23538,0.14105 -0.3835,0.34675 -0.3835,0.576 0,0.42566 0.51069,0.77041 1.14081,0.77041 0.63018,0 1.14087,-0.34475 1.14087,-0.77041 z"
       id="frogRight"
       inkscape:label="#path6"
       style="fill:#008000;stroke-width:0.02424623" />
    <path
       inkscape:connector-curvature="0"
       d="m 26.382821,283.23106 c -0.135,-1.16498 -0.17501,-1.83945 0,-4.02895 -0.02,-1.57887 1.37966,-2.53947 2.52238,-2.45772 l 2.48232,-8.81921 c 0.85476,-2.04127 2.69736,-3.70957 5.74102,-4.84644 9.66311,-3.62017 24.11591,-6.95164 39.11542,-8.14986 8.94324,-9.25861 23.02786,-21.90236 30.478409,-24.38563 1.39242,-0.86865 2.37114,-1.55333 3.63416,-2.14348 0.67253,-1.06279 1.59473,-2.00809 3.04728,-2.35041 3.76904,-0.64638 7.64558,-1.14712 11.72808,-1.51245 l -0.0566,-1.09602 c 0,-0.5825 0.3299,-1.01938 0.69984,-1.05003 l 2.73385,-0.23249 c 0.36996,-0.0308 0.69985,0.49304 0.69985,1.05002 l 0.053,1.00912 c 4.20281,-0.27087 8.65163,-0.41132 13.4358,-0.42407 l -0.0256,-0.81755 c 0,-0.58505 0.3299,-1.02192 0.69986,-1.05005 h 2.73564 c 0.36816,-0.0308 0.69802,0.49565 0.69802,1.05005 l 0.0254,0.8303 c 2.65,0.0332 5.44758,0.0917 8.47848,0.194 1.89726,0.0563 3.68882,0.115 5.3437,1.87012 h 2.13966 c 0.34628,0 0.71446,0.33725 0.78188,1.25952 0.42464,0.2095 0.60506,0.54675 0.6798,0.83542 0.0968,-0.002 0.195,-0.005 0.2898,-0.005 3.07462,0 4.91358,1.58397 7.29198,6.27461 l 5.33458,10.52326 c 0.0674,-0.0225 0.1384,-0.0408 0.204,-0.0408 0.25516,0 0.47752,0.1735 0.64338,0.4854 l 1.35046,2.45775 26.91536,1.45624 c 0.0566,0.002 0.113,0.005 0.1712,0.005 0.42466,0.0175 1.00786,0.0307 1.181,0.91975 l 0.50302,2.42195 0.1476,0.70512 c 0.0254,0.0718 0.0512,0.1535 0.0802,0.23525 1.00968,2.33765 2.60076,8.21116 0.4848,17.87602 -0.3299,1.45877 0.2916,1.98505 0.79644,2.7464 1.04796,0.69999 4.13353,2.33509 3.97678,3.99829 0.25335,5.37274 0.44653,12.99885 -3.74349,13.72695 -9.95293,1.84202 -22.83467,2.57272 -25.68693,3.50777 -0.71808,3.00957 -1.51272,5.60524 -2.23082,5.63592 -0.65976,0 -0.1166,-1.83948 0.155,-3.88587 -0.004,-0.61315 -0.014,-1.21353 -0.0362,-1.80625 l -1.78972,0.79452 -0.06,0.0305 c -0.4101,10.93203 -6.48644,19.64647 -13.84952,19.64647 -7.07146,0 -12.9273,-8.00419 -13.76383,-18.28474 h -0.0492 -1.46898 c 0.004,0.1815 0.004,0.373 0.012,0.55437 -16.99522,0.70002 -54.362839,0.76392 -63.501059,0.67447 -2.87054,0.0893 -5.5861,-0.29122 -5.95608,0.1455 -0.1932,0.85075 -1.12452,2.42452 -1.82436,3.35957 -1.55282,2.07705 -0.91128,-0.14825 -0.75454,-2.27889 0.0582,-0.75623 0.1058,-1.51755 0.1368,-2.284 h -0.002 -1.3195 -0.008 c -0.8894,10.20136 -6.71971,18.1136 -13.7675,18.1136 -7.01681,0 -12.85989,-7.91224 -13.75113,-18.1136 h -0.0456 -1.4963 c 0.031,0.58507 0.0692,1.14712 0.1182,1.6964 -4.67481,-1.08068 -15.09249,-0.8482 -18.44963,-3.5333 -2.57888,-2.04639 -3.49199,-6.01659 -4.19,-9.11301 -0.17121,-0.57737 0.04,-2.67997 0.0782,-3.37999 z m 148.710469,-36.75347 -5.29812,-10.674 c -2.11052,-4.28187 -3.1202,-4.55265 -5.29086,-4.7213 0.4848,3.91655 1.17554,7.93014 2.11414,12.26566 0.55588,2.51392 1.6567,3.72744 3.45922,3.81177 l 4.75682,0.25807 c -0.002,-0.42155 0.0838,-0.7358 0.2588,-0.94017 z"
       id="vehicle2"
       style="fill:#800000;stroke-width:2.15783453"
       inkscape:label="#path86" />
    <path
       inkscape:connector-curvature="0"
       d="m 232.8108,301.35381 0.9665,-0.38958 -0.0266,-2.19277 -0.53258,-0.27035 -0.092,-6.52718 1.09507,-0.6259 -0.014,-1.27095 -0.92976,-0.247 v -0.0957 h -0.014 l -0.0644,-8.5411 h 0.006 l -0.006,-0.5897 c -0.27768,-3.19332 0.014,-6.38667 0.67492,-9.56937 0.147,-1.15173 0.489,-2.30345 1.0124,-3.45305 0,0 -0.006,0 -0.01,0 l 2.94306,-7.10198 4.70845,-11.47047 c 0.40864,-0.92605 1.14325,-2.4397 1.97889,-4.10875 1.21902,-2.44398 3.1956,-6.29728 4.15752,-8.06425 h 0.039 c 3.87973,-7.62993 13.83157,-5.8438 23.87983,-7.15095 1.343,-2.47378 14.39404,-3.59358 19.4905,-3.53398 1.48538,-0.26182 4.13002,-0.1085 4.40552,1.13048 0.99173,4.31097 1.2213,11.67695 1.84344,18.41702 0.0896,0.95163 -1.09504,1.89685 -0.99174,2.7931 0.97794,5.95878 0.53258,13.0203 0.69788,22.03615 0,0.0447 0,0.0915 0,0.13825 h 0.36962 l -0.36962,0.0125 c 0,4.62183 -0.0756,9.24153 -0.1264,13.8591 h 0.0504 l -0.0504,0.0225 c -0.02,2.0799 -0.039,4.1577 -0.039,6.23338 h -8.21858 l 9.7177,0.0385 90.28288,-0.11925 0.016,2.3226 h 0.50042 v 6.37177 h -0.44992 l 0.0484,5.41165 h -10.48212 c 0,-0.0125 0,-0.0255 0,-0.0385 0,7.08495 -6.22594,12.85635 -13.86833,12.85635 -4.94493,0 -9.534,-2.50357 -11.98813,-6.38667 h -2.48164 c -0.255,0.35342 -1.00554,0.61312 -1.89396,0.61312 -0.8884,0 -1.63914,-0.2597 -1.89394,-0.61312 h -0.064 c -0.241,0.35342 -1.00092,0.61312 -1.87788,0.61312 -0.89072,0 -1.63912,-0.2597 -1.89395,-0.61312 h -2.16252 c 0.01,-0.0125 0.016,-0.0278 0.0266,-0.0385 -2.40362,3.83415 -6.88252,6.42287 -11.99732,6.42287 -5.72546,0 -10.9895,-3.35725 -12.99596,-8.33035 -0.53488,-1.41357 -0.86544,-3.01662 -0.86544,-4.52602 0,0.0255 0,0.049 0,0.0725 h -5.16074 l -15.69112,0.0255 h -1.87788 l -5.33748,0.01 h -4.89442 c 0,0.002 0,0.01 0,0.0125 h 0.96648 l -2.19236,3.04642 c -1.5198,5.56705 -6.97438,9.70563 -13.43674,9.70563 -5.1378,0 -9.87613,-2.70583 -12.25446,-6.83588 l -12.52302,0.0225 c -3.15426,1.26243 -4.80258,-1.32205 -3.08771,-2.62917 l 12.21309,-0.0448 c -0.004,-0.5663 0.004,-1.14323 0.02,-1.72015 v 0 c -0.016,0.57692 -0.0266,1.15385 -0.02,1.72015 l -12.22454,0.0448 h -4.74062 c -1.6162,-0.0175 -2.42888,-1.08788 -2.27506,-6.8529 z m 59.79834,3.5361 c 0.44304,0.5301 0.71396,1.19005 0.71396,1.9075 0,1.72227 -1.51518,3.13797 -3.38386,3.13797 -1.85266,0 -3.36552,-1.4157 -3.36552,-3.13797 0,-0.71745 0.25266,-1.3774 0.6979,-1.9075 z m 277.35237,-0.3534 c 0,7.22332 -6.3545,13.12675 -14.15526,13.12675 -7.7916,0 -14.1438,-5.90343 -14.1438,-13.12675 0,-3.3296 1.35216,-6.37603 3.5675,-8.6944 -0.33068,0.34702 -0.64968,0.7004 -0.93894,1.06872 h -2.32324 c 0.3834,-0.65357 0.815,-1.26245 1.281,-1.8266 -1.8136,2.1885 -3.09002,5.0391 -3.39076,8.62625 0,0.43858 -0.039,0.86008 -0.117,1.26245 l -1.61156,-0.036 c 0.1766,-2.81865 -0.92518,-5.6288 -2.66072,-8.02592 h -1.9766 c -0.45686,-0.43643 -0.9022,-0.84945 -1.36134,-1.23688 -0.101,-0.10425 -0.21366,-0.2 -0.31666,-0.30232 2.4977,2.3716 4.04272,5.60537 4.04272,9.16275 0,7.22332 -6.36828,13.12675 -14.15758,13.12675 -7.78928,0 -14.15757,-5.90343 -14.15757,-13.12675 0,-3.1103 1.18461,-5.9758 3.14971,-8.23243 -0.0756,0.0895 -0.1606,0.17475 -0.23864,0.26613 -0.117,0.11925 -0.22934,0.23625 -0.33068,0.34275 h -2.53218 c -1.21442,1.94367 -2.04778,4.29397 -2.2842,7.09557 l -1.61391,0.164 c -0.39256,-2.048 0.28233,-4.74105 1.83658,-7.30637 -0.014,0.015 -0.0234,0.0298 -0.0334,0.0468 h -5.8357 v -6.19718 h 12.16267 c -0.1306,0.0745 -0.25268,0.1575 -0.3788,0.23625 0.195,-0.11925 0.39256,-0.23 0.5923,-0.34062 h -13.93258 c 0.74839,0.44707 1.23965,1.22412 1.23965,2.0991 v 0.96862 c 0,0.3981 -0.10099,0.77068 -0.28231,1.10703 -0.41554,0.91117 -1.35216,1.55622 -2.48626,1.55622 H 469.976 c -1.49679,0 -2.70665,-1.13045 -2.70665,-2.50997 v -0.96653 c 0,-0.28315 0.0574,-0.55987 0.14899,-0.81535 0.1766,-0.60035 0.5969,-1.10702 1.14787,-1.437 H 312.93168 v -2.00542 h -7.10286 v -0.0468 h -0.0234 v -3.23805 h 0.0234 v -61.40805 h 301.95777 v 64.69062 h -10.64746 v 2.00543 h -31.28346 c 5.58772,3.41897 9.30216,9.84825 8.439,14.06985 l -1.6024,-0.049 c 0.1584,-2.7037 -0.854,-5.39463 -2.4587,-7.71725"
       id="vehicle3"
       style="fill:#800000;stroke-width:2.21072173"
       inkscape:label="#path16" />
  </g>
</svg>
